<svg width="40" height="40" viewBox="0 0 40 40" fill="none"
                                xmlns="http://www.w3.org/2000/svg">
                                <rect width="40" height="40" rx="20" fill="url(#paint0_linear_41260_4753)" />
                                <path
                                    d="M19.6443 8.63449C19.072 9.02136 15.198 12.1852 15.1238 12.3177C15.0072 12.5456 15.0231 13.0013 15.1503 13.2133C15.3623 13.5631 15.4842 13.5949 16.5971 13.5949H17.5881V14.5859C17.5881 15.4868 17.5987 15.5981 17.6941 15.7571C17.8531 16.0115 18.0915 16.1387 18.436 16.1387C18.7805 16.1387 19.019 16.0115 19.1779 15.7571C19.2786 15.5928 19.2839 15.4868 19.2839 14.0188C19.2839 12.5509 19.2786 12.4449 19.1779 12.2806C19.0455 12.0633 18.7752 11.899 18.5473 11.899C18.383 11.899 18.4201 11.8566 19.2309 11.2101C19.7026 10.8285 20.1107 10.5211 20.1319 10.5211C20.1531 10.5211 20.5611 10.8285 21.0328 11.2101C21.8436 11.8566 21.8807 11.899 21.7164 11.899C21.4886 11.899 21.2183 12.0633 21.0858 12.2806C20.9851 12.4449 20.9798 12.5509 20.9798 14.0188C20.9798 15.4868 20.9851 15.5928 21.0858 15.7571C21.2448 16.0115 21.4833 16.1387 21.8277 16.1387C22.1722 16.1387 22.4107 16.0115 22.5697 15.7571C22.6651 15.5981 22.6757 15.4868 22.6757 14.5859V13.5949H23.672C24.7796 13.5949 24.9015 13.5631 25.1135 13.2133C25.2406 13.0013 25.2565 12.5456 25.14 12.3177C25.0658 12.1852 21.1918 9.02136 20.6194 8.63449C20.3598 8.4543 19.904 8.4543 19.6443 8.63449Z"
                                    fill="#1A1A1A" />
                                <path
                                    d="M12.8816 14.5495C12.7862 14.6077 12.6643 14.7296 12.606 14.825C12.5 14.9999 12.5 15.1112 12.5 23.3467C12.5 31.5823 12.5 31.6935 12.606 31.8684C12.6643 31.9638 12.7862 32.0857 12.8816 32.144C13.0512 32.25 13.1624 32.25 20.1314 32.25C27.1003 32.25 27.2116 32.25 27.3812 32.144C27.4766 32.0857 27.5985 31.9638 27.6568 31.8684C27.7627 31.6935 27.7627 31.5823 27.7627 23.3467C27.7627 15.1112 27.7627 14.9999 27.6568 14.825C27.4395 14.47 27.3388 14.4435 26.0669 14.4435C24.795 14.4435 24.6943 14.47 24.477 14.825C24.3339 15.0635 24.3339 15.5193 24.477 15.7578C24.6678 16.0704 24.8533 16.1393 25.4998 16.1393H26.0669V23.3467V30.5541H20.1314H14.1959V23.3467V16.1393H14.7682C15.2399 16.1393 15.3618 16.1234 15.5102 16.0333C15.7645 15.8743 15.8917 15.6359 15.8917 15.2914C15.8917 14.9469 15.7645 14.7084 15.5102 14.5495C15.3512 14.4541 15.2399 14.4435 14.1959 14.4435C13.1518 14.4435 13.0406 14.4541 12.8816 14.5495Z"
                                    fill="#1A1A1A" />
                                <path
                                    d="M18.1496 17.0405C18.0649 17.067 17.9377 17.1411 17.8688 17.21C17.625 17.4379 17.5879 17.5757 17.5879 18.2965C17.5879 18.8794 17.6038 19.0013 17.6939 19.1497C17.8529 19.4041 18.0913 19.5312 18.4358 19.5312C18.7803 19.5312 19.0188 19.4041 19.1778 19.1497C19.2679 18.996 19.2838 18.8794 19.2838 18.2806C19.2838 17.6499 19.2732 17.5704 19.1672 17.4114C19.0983 17.316 18.987 17.1941 18.9128 17.1358C18.7538 17.0246 18.3616 16.9716 18.1496 17.0405Z"
                                    fill="#1A1A1A" />
                                <path
                                    d="M21.5412 17.0405C21.4565 17.067 21.3293 17.1411 21.2604 17.21C21.0166 17.4379 20.9795 17.5757 20.9795 18.2965C20.9795 18.8794 20.9954 19.0013 21.0855 19.1497C21.2445 19.4041 21.483 19.5312 21.8274 19.5312C22.1719 19.5312 22.4104 19.4041 22.5694 19.1497C22.6595 18.996 22.6754 18.8794 22.6754 18.2806C22.6754 17.6499 22.6648 17.5704 22.5588 17.4114C22.4899 17.316 22.3786 17.1941 22.3044 17.1358C22.1454 17.0246 21.7532 16.9716 21.5412 17.0405Z"
                                    fill="#1A1A1A" />
                                <path
                                    d="M17.9901 20.4802C17.6085 20.7345 17.4813 21.2592 17.6986 21.6461C17.8841 21.9693 18.0378 22.0488 18.4776 22.0488C18.8645 22.0488 18.8698 22.0488 19.0712 21.8315C19.4209 21.4553 19.4209 20.9995 19.0712 20.6285C18.8804 20.4219 18.8539 20.4113 18.5094 20.3901C18.2126 20.3795 18.1172 20.3954 17.9901 20.4802Z"
                                    fill="#1A1A1A" />
                                <path
                                    d="M21.3817 20.4802C21.0001 20.7345 20.8729 21.2592 21.0902 21.6461C21.2757 21.9693 21.4294 22.0488 21.8692 22.0488C22.2561 22.0488 22.2614 22.0488 22.4628 21.8315C22.8125 21.4553 22.8125 20.9995 22.4628 20.6285C22.272 20.4219 22.2455 20.4113 21.901 20.3901C21.6042 20.3795 21.5088 20.3954 21.3817 20.4802Z"
                                    fill="#1A1A1A" />
                                <path
                                    d="M16.2732 23.8769C16.0188 24.0359 15.8916 24.2744 15.8916 24.6189C15.8916 24.9633 16.0188 25.2018 16.2732 25.3608C16.4428 25.4615 16.5487 25.4668 20.1313 25.4668C23.7138 25.4668 23.8197 25.4615 23.9893 25.3608C24.2437 25.2018 24.3709 24.9633 24.3709 24.6189C24.3709 24.2744 24.2437 24.0359 23.9893 23.8769C23.8197 23.7762 23.7138 23.7709 20.1313 23.7709C16.5487 23.7709 16.4428 23.7762 16.2732 23.8769Z"
                                    fill="#1A1A1A" />
                                <path
                                    d="M16.2732 27.2676C16.0188 27.4265 15.8916 27.665 15.8916 28.0095C15.8916 28.354 16.0188 28.5924 16.2732 28.7514C16.4428 28.8521 16.5487 28.8574 20.1313 28.8574C23.7138 28.8574 23.8197 28.8521 23.9893 28.7514C24.2437 28.5924 24.3709 28.354 24.3709 28.0095C24.3709 27.665 24.2437 27.4265 23.9893 27.2676C23.8197 27.1669 23.7138 27.1616 20.1313 27.1616C16.5487 27.1616 16.4428 27.1669 16.2732 27.2676Z"
                                    fill="#1A1A1A" />
                                <defs>
                                    <linearGradient id="paint0_linear_41260_4753" x1="-1.10745e-06" y1="4.50001"
                                        x2="42.6839" y2="68.4054" gradientUnits="userSpaceOnUse">
                                        <stop stop-color="#EEDDBF" />
                                        <stop offset="0.745659" stop-color="#C78A11" />
                                    </linearGradient>
                                </defs>
                            </svg>