<svg width="36" height="36" viewBox="0 0 36 36" fill="none"
                                xmlns="http://www.w3.org/2000/svg">
                                <circle cx="18" cy="18" r="18" fill="url(#paint0_linear_41260_10504)" />
                                <path
                                    d="M16.551 24C15.9409 23.9994 15.356 23.7568 14.9246 23.3254C14.4932 22.894 14.2506 22.3091 14.25 21.699C14.25 21.5001 14.171 21.3093 14.0303 21.1687C13.8897 21.028 13.6989 20.949 13.5 20.949C13.3011 20.949 13.1103 21.028 12.9697 21.1687C12.829 21.3093 12.75 21.5001 12.75 21.699V21.75C12.75 21.7642 12.75 21.777 12.75 21.7913C12.775 22.783 13.1864 23.7257 13.8964 24.4185C14.6064 25.1113 15.559 25.4993 16.551 25.5H17.25V26.25C17.25 26.4489 17.329 26.6397 17.4697 26.7803C17.6103 26.921 17.8011 27 18 27C18.1989 27 18.3897 26.921 18.5303 26.7803C18.671 26.6397 18.75 26.4489 18.75 26.25V25.5H19.449C20.351 25.499 21.2233 25.1773 21.9099 24.5924C22.5965 24.0074 23.0527 23.1973 23.197 22.3069C23.3413 21.4165 23.1642 20.5038 22.6974 19.732C22.2306 18.9602 21.5046 18.3795 20.649 18.0938L18.75 17.46V12H19.449C20.0591 12.0006 20.644 12.2432 21.0754 12.6746C21.5068 13.106 21.7494 13.6909 21.75 14.301C21.75 14.4999 21.829 14.6907 21.9697 14.8313C22.1103 14.972 22.3011 15.051 22.5 15.051C22.6989 15.051 22.8897 14.972 23.0303 14.8313C23.171 14.6907 23.25 14.4999 23.25 14.301V14.25C23.25 14.2358 23.25 14.223 23.25 14.2088C23.225 13.217 22.8136 12.2743 22.1036 11.5815C21.3936 10.8887 20.441 10.5007 19.449 10.5H18.75V9.75C18.75 9.55109 18.671 9.36032 18.5303 9.21967C18.3897 9.07902 18.1989 9 18 9C17.8011 9 17.6103 9.07902 17.4697 9.21967C17.329 9.36032 17.25 9.55109 17.25 9.75V10.5H16.551C15.649 10.501 14.7767 10.8227 14.0901 11.4076C13.4035 11.9926 12.9473 12.8027 12.803 13.6931C12.6587 14.5835 12.8358 15.4962 13.3026 16.268C13.7694 17.0398 14.4954 17.6205 15.351 17.9062L17.25 18.54V24H16.551ZM18.75 19.0402L20.175 19.5157C20.6934 19.6883 21.1336 20.0397 21.4166 20.5071C21.6996 20.9745 21.8071 21.5274 21.7198 22.0667C21.6324 22.6061 21.356 23.0968 20.94 23.451C20.5239 23.8053 19.9954 23.9998 19.449 24H18.75V19.0402ZM15.825 16.4843C15.3066 16.3117 14.8664 15.9603 14.5834 15.4929C14.3004 15.0255 14.1929 14.4726 14.2802 13.9333C14.3676 13.3939 14.644 12.9032 15.06 12.549C15.4761 12.1947 16.0046 12.0002 16.551 12H17.25V16.9598L15.825 16.4843Z"
                                    fill="white" />
                                <defs>
                                    <linearGradient id="paint0_linear_41260_10504" x1="0" y1="0" x2="26.6879"
                                        y2="40.7692" gradientUnits="userSpaceOnUse">
                                        <stop  stop-color="#F4EAD8" />
                                        <stop offset="1" stop-color="#E0B764" />
                                    </linearGradient>
                                </defs>
                            </svg>