 <svg width="61" height="61" viewBox="0 0 61 61" fill="none" xmlns="http://www.w3.org/2000/svg">
                            <circle cx="30.5" cy="30.5" r="30.5" fill="url(#paint0_linear_41260_5948)" />
                            <g clip-path="url(#clip0_41260_5948)">
                                <path
                                    d="M20.7112 24.1983H23.1459C23.3369 24.9203 23.7538 25.5576 24.3324 26.012C24.9109 26.4664 25.619 26.7126 26.3472 26.7126C27.0755 26.7126 27.7835 26.4664 28.3621 26.012C28.9406 25.5576 29.3576 24.9203 29.5486 24.1983H40.2885C40.5246 24.1983 40.7509 24.1019 40.9178 23.9305C41.0847 23.759 41.1784 23.5265 41.1784 23.284C41.1784 23.0416 41.0847 22.809 40.9178 22.6376C40.7509 22.4661 40.5246 22.3698 40.2885 22.3698H29.5486C29.3576 21.6478 28.9406 21.0105 28.3621 20.5561C27.7835 20.1017 27.0755 19.8555 26.3472 19.8555C25.619 19.8555 24.9109 20.1017 24.3324 20.5561C23.7538 21.0105 23.3369 21.6478 23.1459 22.3698H20.7112C20.4752 22.3698 20.2488 22.4661 20.0819 22.6376C19.915 22.809 19.8213 23.0416 19.8213 23.284C19.8213 23.5265 19.915 23.759 20.0819 23.9305C20.2488 24.1019 20.4752 24.1983 20.7112 24.1983ZM26.3468 21.6842C26.6548 21.6842 26.9559 21.778 27.212 21.9538C27.4681 22.1296 27.6677 22.3794 27.7855 22.6718C27.9034 22.9641 27.9342 23.2858 27.8742 23.5962C27.8141 23.9065 27.6657 24.1916 27.448 24.4153C27.2302 24.6391 26.9527 24.7915 26.6506 24.8532C26.3485 24.9149 26.0354 24.8832 25.7508 24.7621C25.4663 24.6411 25.2231 24.436 25.0519 24.1729C24.8808 23.9098 24.7895 23.6005 24.7895 23.284C24.79 22.8599 24.9542 22.4532 25.2461 22.1533C25.5381 21.8533 25.9339 21.6846 26.3468 21.6842Z"
                                    fill="#FCF9F6" />
                                <path
                                    d="M40.2885 30.0849H37.8538C37.6632 29.3629 37.2464 28.7255 36.6679 28.271C36.0894 27.8166 35.3813 27.5703 34.6529 27.5703C33.9246 27.5703 33.2165 27.8166 32.638 28.271C32.0595 28.7255 31.6427 29.3629 31.452 30.0849H20.7112C20.4752 30.0849 20.2488 30.1812 20.0819 30.3526C19.915 30.524 19.8213 30.7565 19.8213 30.9989C19.8213 31.2413 19.915 31.4738 20.0819 31.6452C20.2488 31.8166 20.4752 31.9129 20.7112 31.9129H31.452C31.6427 32.6348 32.0595 33.2723 32.638 33.7267C33.2165 34.1812 33.9246 34.4275 34.6529 34.4275C35.3813 34.4275 36.0894 34.1812 36.6679 33.7267C37.2464 33.2723 37.6632 32.6348 37.8538 31.9129H40.2885C40.5246 31.9129 40.7509 31.8166 40.9178 31.6452C41.0847 31.4738 41.1784 31.2413 41.1784 30.9989C41.1784 30.7565 41.0847 30.524 40.9178 30.3526C40.7509 30.1812 40.5246 30.0849 40.2885 30.0849ZM34.6529 32.5984C34.3449 32.5984 34.0438 32.5045 33.7877 32.3288C33.5317 32.153 33.3321 31.9032 33.2142 31.611C33.0963 31.3187 33.0655 30.9971 33.1256 30.6868C33.1857 30.3766 33.334 30.0916 33.5518 29.8679C33.7696 29.6442 34.047 29.4919 34.3491 29.4301C34.6512 29.3684 34.9643 29.4001 35.2489 29.5212C35.5334 29.6422 35.7767 29.8472 35.9478 30.1103C36.1189 30.3733 36.2102 30.6825 36.2102 30.9989C36.2098 31.4229 36.0455 31.8295 35.7536 32.1293C35.4616 32.4292 35.0658 32.5979 34.6529 32.5984Z"
                                    fill="#FCF9F6" />
                                <path
                                    d="M40.2885 37.7995H29.5486C29.3576 37.0775 28.9406 36.4402 28.3621 35.9858C27.7835 35.5313 27.0755 35.2852 26.3472 35.2852C25.619 35.2852 24.9109 35.5313 24.3324 35.9858C23.7538 36.4402 23.3369 37.0775 23.1459 37.7995H20.7112C20.4752 37.7995 20.2488 37.8958 20.0819 38.0673C19.915 38.2387 19.8213 38.4713 19.8213 38.7137C19.8213 38.9562 19.915 39.1887 20.0819 39.3602C20.2488 39.5316 20.4752 39.6279 20.7112 39.6279H23.1459C23.3369 40.3499 23.7538 40.9873 24.3324 41.4417C24.9109 41.8961 25.619 42.1423 26.3472 42.1423C27.0755 42.1423 27.7835 41.8961 28.3621 41.4417C28.9406 40.9873 29.3576 40.3499 29.5486 39.6279H40.2885C40.5246 39.6279 40.7509 39.5316 40.9178 39.3602C41.0847 39.1887 41.1784 38.9562 41.1784 38.7137C41.1784 38.4713 41.0847 38.2387 40.9178 38.0673C40.7509 37.8958 40.5246 37.7995 40.2885 37.7995ZM26.3468 40.3136C26.0388 40.3136 25.7377 40.2198 25.4816 40.044C25.2255 39.8682 25.0259 39.6183 24.908 39.326C24.7902 39.0336 24.7593 38.712 24.8194 38.4016C24.8795 38.0913 25.0278 37.8062 25.2456 37.5824C25.4634 37.3587 25.7409 37.2063 26.043 37.1446C26.3451 37.0828 26.6582 37.1145 26.9427 37.2356C27.2273 37.3567 27.4705 37.5618 27.6416 37.8249C27.8127 38.088 27.9041 38.3973 27.9041 38.7137C27.9034 39.1378 27.7391 39.5443 27.4472 39.8442C27.1553 40.1441 26.7596 40.3129 26.3468 40.3136Z"
                                    fill="#FCF9F6" />
                            </g>
                            <defs>
                                <linearGradient id="paint0_linear_41260_5948" x1="0" y1="0" x2="45.2212" y2="69.0811"
                                    gradientUnits="userSpaceOnUse">
                                    <stop stop-color="#F4EAD8" />
                                    <stop offset="1" stop-color="#E0B764" />
                                </linearGradient>
                                <clipPath id="clip0_41260_5948">
                                    <rect width="23" height="24" fill="white" transform="translate(19 19)" />
                                </clipPath>
                            </defs>
                        </svg>