<svg width="1084" height="1169" viewBox="0 0 1084 1169" fill="none" xmlns="http://www.w3.org/2000/svg">
<g opacity="0.07">
<path d="M1083 229.287C1070.46 283.032 1054.69 336.023 1035.81 387.884C1027.42 410.938 1018.1 434.287 1001.9 452.706C960.473 499.791 887.979 501.26 826.105 491.032C769.117 481.61 713.258 465.382 660.09 442.802C607.403 420.426 556.45 391.556 499.998 382.076C443.548 372.596 377.891 387.837 347.473 436.326C329.376 465.176 326.495 501.693 333.565 535.008C340.636 568.323 356.843 598.982 374.832 627.898C395.431 661.007 419.349 694.528 422.441 733.399C425.64 773.637 403.406 814.792 367.995 834.17C317.62 861.737 255.945 844.446 199.452 834.141C127.682 821.048 50.6961 821.166 -14.8721 853.153C-80.4424 885.14 -131.127 954.654 -124.4 1027.3" stroke="url(#paint0_linear_41260_3839)" stroke-miterlimit="10"/>
<path d="M1070.27 218.418C1058.05 270.959 1042.55 322.728 1023.9 373.327C1015.62 395.822 1006.42 418.578 990.625 436.621C950.262 482.732 880.121 485.271 819.96 476.493C805.675 474.41 791.455 471.886 777.326 468.93C736.639 460.415 696.705 448.307 658.146 432.79C606.667 412.071 556.772 385.026 501.611 376.321C446.458 367.614 384.237 383.512 352.115 428.59C340.03 445.548 331.779 463.824 328.286 483.551C325.9 496.99 325.386 510.938 326.785 524.806C327.419 531.149 328.43 537.494 329.806 543.858C335.33 569.3 347.088 594.219 359.957 617.885C361.234 620.232 362.521 622.573 363.814 624.906C383.94 661.242 405.193 698.393 406.355 739.024C407.474 778.16 386.821 817.956 352.332 837.055C303.26 864.233 243.407 848.666 188.745 839.98C184.435 839.296 180.109 838.66 175.768 838.08C110.158 829.307 41.5546 832.887 -16.9846 863.159C-79.397 895.428 -127.072 963.431 -119.521 1034.02" stroke="url(#paint1_linear_41260_3839)" stroke-miterlimit="10"/>
<path d="M1057.54 207.547C1045.65 258.887 1030.4 309.428 1012 358.77C1003.82 380.705 994.733 402.869 979.353 420.536C940.057 465.674 872.262 469.281 813.816 461.955C799.937 460.217 786.112 458.051 772.366 455.462C732.781 448.009 693.856 437.053 656.202 422.775C605.931 403.711 557.096 378.493 503.222 370.564C449.367 362.631 390.214 379.117 356.753 420.852C343.259 437.683 332.226 454.284 326.347 473.439C322.326 486.489 320.068 500.364 320.002 514.6C319.96 521.116 320.357 527.729 321.218 534.463C324.702 561.36 336.388 588.574 349.013 614.28C350.267 616.829 351.525 619.372 352.789 621.91C372.443 661.475 391.085 702.091 390.264 744.645C389.532 782.591 370.233 821.116 336.664 839.938C288.896 866.726 230.864 852.882 178.032 845.816C173.868 845.259 169.687 844.751 165.496 844.296C102.142 837.425 36.4777 842.618 -19.1033 873.162C-78.3598 905.717 -123.024 972.208 -114.646 1040.73" stroke="url(#paint2_linear_41260_3839)" stroke-miterlimit="10"/>
<path d="M1044.82 196.676C1033.24 246.812 1018.26 296.131 1000.09 344.213C992.016 365.587 983.048 387.162 968.081 404.451C929.847 448.616 864.404 453.294 807.671 447.417C794.198 446.026 780.768 444.215 767.404 441.995C728.918 435.6 691.006 425.798 654.255 412.76C605.191 395.353 557.415 371.961 504.832 364.807C452.274 357.647 395.838 374.616 361.392 413.112C346.396 429.872 332.673 444.741 324.407 463.325C318.755 475.986 314.749 489.786 313.218 504.395C312.503 511.085 312.285 517.964 312.632 525.066C314.077 553.419 325.688 582.925 338.072 610.671C339.301 613.419 340.534 616.166 341.765 618.91C360.949 661.701 377.047 705.652 374.173 750.265C371.81 786.956 353.646 824.271 320.996 842.818C274.533 869.216 218.32 857.094 167.319 851.647C163.299 851.219 159.265 850.836 155.224 850.508C94.1234 845.539 31.4012 852.348 -21.2192 883.162C-77.3199 915.999 -118.974 980.977 -109.77 1047.45" stroke="url(#paint3_linear_41260_3839)" stroke-miterlimit="10"/>
<path d="M1032.09 185.805C1020.84 234.737 1006.12 282.832 988.187 329.654C980.217 350.468 971.364 371.451 956.812 388.364C919.642 431.556 856.548 437.3 801.53 432.876C788.462 431.831 775.427 430.379 762.446 428.525C725.062 423.192 688.161 414.542 652.313 402.744C604.456 386.992 557.741 365.427 506.445 359.048C455.187 352.662 401.146 369.975 366.035 405.372C349.449 422.093 333.125 435.198 322.472 453.211C315.185 465.483 309.435 479.21 306.439 494.189C305.048 501.051 304.217 508.199 304.053 515.671C303.458 545.479 314.994 577.281 327.135 607.066C328.339 610.016 329.545 612.964 330.746 615.914C349.459 661.934 363.099 709.111 358.089 755.886C354.299 791.282 337.062 827.431 305.335 845.701C260.176 871.711 205.784 861.31 156.613 857.482C152.736 857.181 148.85 856.927 144.956 856.724C86.1093 853.657 26.3268 862.079 -23.3332 893.164C-76.278 926.285 -114.922 989.75 -104.893 1054.16" stroke="url(#paint4_linear_41260_3839)" stroke-miterlimit="10"/>
<path d="M1019.36 174.934C1008.44 222.664 993.972 269.532 976.28 315.097C968.416 335.352 959.678 355.743 945.541 372.276C909.434 414.496 848.691 421.311 795.386 418.336C782.723 417.635 770.083 416.542 757.485 415.055C721.203 410.783 685.312 403.284 650.369 392.729C603.719 378.634 558.063 358.894 508.058 353.291C458.096 347.678 406.172 365.185 370.674 397.634C352.413 414.325 333.573 425.66 320.534 443.098C311.613 454.982 304.119 468.634 299.657 483.983C297.591 491.02 296.146 498.434 295.466 506.274C292.832 537.537 304.293 571.634 316.193 603.459C317.374 606.608 318.551 609.76 319.721 612.916C337.962 662.162 349.24 712.489 341.999 761.505C336.964 795.583 320.476 830.589 289.668 848.58C245.814 874.199 193.242 865.523 145.902 863.314C142.17 863.141 138.43 863.012 134.686 862.935C78.0944 861.771 21.2515 871.808 -25.4481 903.163C-75.237 936.57 -110.87 998.521 -100.016 1060.87" stroke="url(#paint5_linear_41260_3839)" stroke-miterlimit="10"/>
<path d="M1006.64 164.062C996.031 210.59 981.83 256.235 964.375 300.538C956.616 320.232 947.993 340.032 934.27 356.189C899.227 397.436 840.833 405.319 789.244 403.795C776.986 403.44 764.741 402.704 752.527 401.585C717.347 398.373 682.468 392.026 648.428 382.713C602.986 370.274 558.39 352.36 509.672 347.533C461.008 342.693 410.961 360.235 375.317 389.891C355.301 406.546 334.027 416.115 318.599 432.982C308.044 444.478 298.803 458.056 292.88 473.775C290.14 480.985 288.08 488.665 286.889 496.876C282.215 529.593 293.602 565.987 305.26 599.851C306.416 603.201 307.566 606.558 308.707 609.916C326.478 662.391 335.505 715.813 325.919 767.122C319.801 799.872 303.899 833.742 274.012 851.459C231.462 876.689 180.712 869.735 135.2 869.145C131.611 869.099 128.019 869.099 124.424 869.147C70.0868 869.885 16.1856 881.535 -27.5556 913.163C-74.1887 946.852 -106.812 1007.29 -95.13 1067.59" stroke="url(#paint6_linear_41260_3839)" stroke-miterlimit="10"/>
<path d="M993.908 153.191C983.628 198.517 969.686 242.936 952.469 285.981C944.814 305.115 936.309 324.325 922.997 340.104C889.017 380.378 832.972 389.33 783.098 389.257C771.248 389.249 759.394 388.868 747.564 388.118C713.486 385.966 679.618 380.773 646.481 372.698C602.247 361.914 558.71 345.828 511.283 341.776C463.916 337.709 410.187 349.245 379.957 382.153C355.511 394.602 334.476 406.575 316.661 422.87C304.472 433.977 293.487 447.48 286.098 463.569C282.683 470.952 280.009 478.899 278.304 487.481C271.591 521.653 282.905 560.343 294.319 596.244C295.449 599.795 296.574 603.354 297.684 606.919C314.983 662.621 321.883 719.11 309.83 772.745C302.767 804.169 287.31 836.904 258.344 854.342C217.1 879.184 168.17 873.951 124.489 874.982C121.044 875.063 117.599 875.19 114.154 875.365C62.072 878.005 11.1085 891.271 -29.6703 923.168C-73.1475 957.143 -102.76 1016.07 -90.2531 1074.31" stroke="url(#paint7_linear_41260_3839)" stroke-miterlimit="10"/>
<path d="M981.181 142.322C971.225 186.444 957.543 229.638 940.562 271.423C933.014 289.999 924.623 308.616 911.725 324.019C878.809 363.319 825.116 373.34 776.955 374.718C765.51 375.055 754.051 375.032 742.604 374.65C709.628 373.558 676.77 369.517 644.538 362.683C601.512 353.557 559.034 339.295 512.894 336.019C466.827 332.726 414.801 343.734 384.595 374.415C358.195 386.19 334.923 397.034 314.722 412.757C300.899 423.476 288.169 436.906 279.315 453.365C275.224 460.922 271.937 469.136 269.716 478.086C260.964 513.713 272.203 554.698 283.375 592.639C284.483 596.389 285.579 600.152 286.658 603.921C303.487 662.851 308.391 722.401 293.737 778.364C285.853 808.474 270.721 840.06 242.676 857.223C202.735 881.678 155.625 878.169 113.776 880.82C110.477 881.03 107.177 881.283 103.88 881.583C54.0518 886.125 6.02995 901.004 -31.7904 933.174C-72.1118 967.431 -98.712 1024.85 -85.3818 1081.03" stroke="url(#paint8_linear_41260_3839)" stroke-miterlimit="10"/>
<path d="M968.453 131.451C958.819 174.371 945.4 216.341 928.656 256.866C921.213 274.88 912.937 292.907 900.453 307.934C868.601 346.261 817.255 357.351 770.809 360.182C759.77 360.864 748.706 361.199 737.641 361.184C705.767 361.153 673.919 358.265 642.591 352.671C600.771 345.201 559.354 332.763 514.505 330.264C469.735 327.744 419.413 338.222 389.235 366.679C360.88 377.781 335.372 387.495 312.784 402.647C297.329 412.977 282.851 426.332 272.533 443.162C267.766 450.891 263.866 459.373 261.134 468.693C250.342 505.776 261.506 549.055 272.437 589.036C273.52 592.988 274.589 596.952 275.639 600.927C291.996 663.084 295.052 725.711 277.651 783.988C269.049 812.798 254.136 843.221 227.012 860.107C188.375 884.169 143.087 882.383 103.067 886.651C99.911 886.988 96.7572 887.368 93.6117 887.792C46.039 894.237 0.954716 910.731 -33.9031 943.169C-71.0687 977.711 -94.6586 1033.61 -80.5009 1087.73" stroke="url(#paint9_linear_41260_3839)" stroke-miterlimit="10"/>
<path d="M955.726 120.58C946.416 162.296 933.256 203.042 916.75 242.307C909.411 259.762 901.251 277.196 889.18 291.847C858.391 329.203 809.396 341.361 764.666 345.642C754.032 346.669 743.362 347.361 732.681 347.714C701.908 348.744 671.073 347.008 640.647 342.656C600.035 336.841 559.676 326.23 516.116 324.505C472.643 322.759 424.026 332.709 393.875 358.937C363.566 369.365 335.82 377.953 310.846 392.531C293.757 402.474 277.535 415.755 265.751 432.954C260.311 440.858 255.795 449.606 252.55 459.294C239.719 497.83 250.808 543.407 261.496 585.427C262.554 589.578 263.595 593.749 264.614 597.927C280.499 663.313 281.865 729.051 261.56 789.607C252.327 817.141 237.548 846.379 211.343 862.988C174.011 886.661 130.542 886.597 92.3538 892.484C89.3414 892.95 86.3352 893.455 83.3395 894.006C38.0203 902.353 -4.12224 920.461 -36.0218 953.171C-70.0314 987.996 -90.611 1042.39 -75.6279 1094.45" stroke="url(#paint10_linear_41260_3839)" stroke-miterlimit="10"/>
<path d="M942.999 109.709C934.012 150.222 921.114 189.743 904.844 227.75C897.611 244.646 889.566 261.487 877.909 275.762C848.184 312.143 801.538 325.37 758.521 331.103C748.292 332.478 738.018 333.525 727.721 334.247C698.05 336.336 668.225 335.752 638.702 332.642C599.297 328.484 559.999 319.698 517.727 318.75C475.552 317.777 428.64 327.197 398.514 351.201C366.251 360.955 336.27 368.414 308.907 382.42C290.184 391.975 272.217 405.181 258.968 422.75C252.852 430.827 247.723 439.843 243.964 449.901C229.093 489.892 240.11 537.764 250.555 581.821C251.588 586.175 252.604 590.547 253.592 594.931C269.007 663.543 268.849 732.456 245.471 795.228C235.684 821.511 220.963 849.537 195.678 865.869C159.65 889.152 118.002 890.81 81.6434 898.318C78.7765 898.91 75.9159 899.544 73.0698 900.22C30.0063 910.469 -9.19658 930.192 -38.1357 963.173C-68.9895 998.282 -86.5587 1051.16 -70.7503 1101.16" stroke="url(#paint11_linear_41260_3839)" stroke-miterlimit="10"/>
<path d="M930.272 98.8379C921.609 138.149 908.971 176.445 892.938 213.193C885.811 229.529 877.88 245.781 866.637 259.676C837.976 295.085 793.68 309.38 752.377 316.565C742.554 318.284 732.675 319.69 722.761 320.779C694.192 323.929 665.377 324.498 636.758 322.627C598.562 320.124 560.321 313.166 519.339 312.991C478.462 312.794 433.253 321.683 403.154 343.46C368.937 352.543 336.719 358.872 306.971 372.306C286.614 381.472 266.902 394.605 252.189 412.546C245.397 420.798 239.655 430.078 235.382 440.508C218.472 481.954 229.414 532.119 239.617 578.218C240.628 582.771 241.615 587.347 242.574 591.937C257.517 663.776 256.02 735.947 229.387 800.852C219.104 825.911 204.379 852.699 180.016 868.755C145.293 891.648 105.464 895.03 70.937 904.155C68.2135 904.876 65.5005 905.635 62.802 906.438C21.9921 918.589 -14.2712 939.925 -40.2498 973.178C-67.9477 1008.57 -82.5067 1059.94 -65.8709 1107.88" stroke="url(#paint12_linear_41260_3839)" stroke-miterlimit="10"/>
<path d="M917.544 87.9668C909.203 126.074 896.827 163.146 881.031 198.634C874.008 214.409 866.196 230.07 855.364 243.589C827.768 278.025 785.821 293.389 746.234 302.024C736.816 304.089 727.332 305.852 717.8 307.309C690.333 311.519 662.529 313.24 634.814 312.611C597.823 311.764 560.645 306.631 520.952 307.232C481.372 307.808 440.8 321.671 407.796 335.718C373.624 350.267 337.168 349.331 305.033 362.194C283.042 370.971 261.585 384.029 245.407 402.34C237.939 410.764 231.584 420.313 226.798 431.111C207.848 474.012 218.715 526.473 228.675 574.611C229.661 579.366 230.621 584.143 231.548 588.939C246.022 664.006 243.376 739.541 213.297 806.471C202.568 830.343 187.793 855.856 164.35 871.634C130.931 894.138 92.9256 899.242 60.2257 909.988C57.6457 910.837 55.0802 911.724 52.5314 912.651C13.9751 926.705 -19.3464 949.657 -42.3646 983.178C-66.9067 1018.85 -78.4553 1068.71 -60.9942 1114.6" stroke="url(#paint13_linear_41260_3839)" stroke-miterlimit="10"/>
<path d="M904.817 77.0957C896.801 114.001 884.685 149.847 869.126 184.077C862.209 199.293 854.511 214.361 844.093 227.504C817.559 260.967 777.963 277.399 740.089 287.486C731.077 289.898 721.985 292.018 712.838 293.841C686.473 299.112 659.681 301.987 632.869 302.598C597.086 303.407 560.966 300.101 522.562 301.477C484.28 302.827 444.875 315.712 412.433 327.982C376.047 341.745 337.617 339.791 303.096 352.081C279.473 360.47 256.27 373.455 238.626 392.135C230.485 400.731 223.514 410.548 218.215 421.716C197.226 466.073 208.017 520.828 217.737 571.004C218.697 575.958 219.63 580.939 220.529 585.941C234.53 664.235 230.94 743.264 197.211 812.092C186.076 834.813 171.21 859.014 148.686 874.517C116.57 896.631 80.3861 903.458 49.5178 915.824C47.0833 916.801 44.6634 917.813 42.2643 918.867C5.96363 934.823 -24.4182 959.388 -44.4781 993.182C-65.8643 1029.14 -74.4026 1077.48 -56.1161 1121.31" stroke="url(#paint14_linear_41260_3839)" stroke-miterlimit="10"/>
<path d="M892.089 66.2246C884.397 101.927 872.541 136.549 857.219 169.518C850.408 184.174 842.824 198.65 832.82 211.417C807.351 243.907 770.104 261.407 733.945 272.946C725.338 275.702 716.642 278.18 707.877 280.372C682.613 286.702 656.832 290.729 630.924 292.581C596.349 295.047 561.29 293.567 524.174 295.719C487.189 297.841 448.97 309.664 417.074 320.242C378.445 333.055 338.068 330.248 301.158 341.967C275.901 349.969 250.951 362.879 231.844 381.929C223.027 390.7 215.443 400.783 209.63 412.321C186.601 458.131 197.318 515.184 206.796 567.399C207.734 572.554 208.64 577.739 209.505 582.945C223.035 664.467 218.715 747.147 181.121 817.713C169.61 839.32 154.621 862.174 133.018 877.398C102.208 899.123 67.843 907.672 38.8041 921.657C36.5131 922.761 34.2408 923.902 31.9913 925.081C-2.05573 942.939 -29.498 969.12 -46.5953 1003.18C-64.8257 1039.43 -70.3536 1086.26 -51.2397 1128.03" stroke="url(#paint15_linear_41260_3839)" stroke-miterlimit="10"/>
<path d="M879.362 55.3535C871.992 89.8538 860.398 123.25 845.313 154.96C838.608 169.056 831.139 182.943 821.549 195.332C797.144 226.849 762.246 245.418 727.8 258.407C719.599 261.509 711.297 264.345 702.917 266.904C678.755 274.295 653.985 279.473 628.981 282.567C595.614 286.689 561.612 287.035 525.786 289.962C490.098 292.858 453.101 303.541 421.715 312.502C380.83 324.175 338.515 320.705 299.221 331.853C272.33 339.468 245.636 352.303 225.063 371.723C215.57 380.667 207.373 391.018 201.046 402.924C175.978 450.191 186.621 509.537 195.855 563.792C196.768 569.147 197.647 574.536 198.483 579.947C211.543 664.696 206.712 751.214 165.033 823.333C153.166 843.869 138.035 865.332 117.354 880.279C87.8473 901.616 55.3033 911.888 28.096 927.491C25.9505 928.723 23.8237 929.989 21.7219 931.295C-10.0695 951.055 -34.5721 978.849 -48.7111 1013.19C-63.7856 1049.71 -66.3012 1095.03 -46.364 1134.74" stroke="url(#paint16_linear_41260_3839)" stroke-miterlimit="10"/>
<path d="M866.635 44.4844C859.589 77.7809 848.255 109.955 833.407 140.403C826.806 153.939 819.453 167.234 810.278 179.247C786.936 209.788 754.39 229.428 721.659 243.869C713.863 247.316 705.956 250.509 697.959 253.436C674.899 261.889 651.138 268.22 627.039 272.552C594.88 278.33 561.939 280.502 527.401 284.205C493.013 287.874 457.284 297.35 426.357 304.764C383.219 315.104 338.969 311.167 297.285 321.74C268.76 328.965 240.322 341.725 218.283 361.517C208.117 370.633 199.304 381.25 192.464 393.529C165.357 442.249 175.926 503.892 184.918 560.186C185.806 565.743 186.658 571.334 187.462 576.951C200.051 664.928 194.934 755.494 148.946 828.956C136.734 848.463 121.449 868.491 101.689 883.163C73.4878 904.108 42.7629 916.104 17.3851 933.326C15.3831 934.685 13.4039 936.08 11.4518 937.511C-18.086 959.173 -39.6469 988.58 -50.8254 1023.19C-62.7441 1060 -62.2493 1103.8 -41.4868 1141.46" stroke="url(#paint17_linear_41260_3839)" stroke-miterlimit="10"/>
<path d="M853.907 33.6133C847.184 65.7082 836.111 96.6556 821.5 125.846C815.005 138.823 807.769 151.525 799.006 163.161C776.728 192.732 746.531 213.439 715.513 229.33C708.122 233.125 700.611 236.673 692.996 239.971C671.038 249.482 648.288 256.966 625.093 262.54C594.139 269.974 562.258 273.972 529.01 278.45C495.919 282.893 461.529 291.1 430.995 297.028C385.622 305.836 339.415 301.628 295.345 311.63C265.186 318.466 235.002 331.154 211.499 351.313C200.657 360.604 191.231 371.49 183.878 384.136C154.731 434.311 165.226 498.25 173.976 556.581C174.841 562.338 175.666 568.132 176.439 573.955C188.556 665.159 183.379 760.015 132.856 834.577C120.303 853.103 104.863 871.651 86.0235 886.046C59.126 906.603 30.2222 920.32 6.67598 939.161C4.8174 940.65 2.98584 942.169 1.18338 943.727C-26.0988 967.291 -44.7221 998.314 -52.9402 1033.19C-61.703 1070.29 -58.1979 1112.58 -36.6079 1148.17" stroke="url(#paint18_linear_41260_3839)" stroke-miterlimit="10"/>
<path d="M841.179 22.7422C834.78 53.6334 823.968 83.3562 809.594 111.287C803.205 123.703 796.083 135.815 787.734 147.072C766.52 175.668 738.672 197.445 709.369 214.788C702.386 218.927 695.268 222.833 688.035 226.497C667.179 237.07 645.441 245.706 623.149 252.521C593.403 261.61 562.583 267.435 530.623 272.689C498.829 277.905 465.855 284.793 435.637 289.285C388.062 296.358 339.866 292.084 293.41 301.514C261.614 307.965 229.685 320.578 204.717 341.107C193.2 350.573 183.16 361.722 175.294 374.739C144.107 426.37 154.527 492.603 163.036 552.974C163.876 558.932 164.674 564.928 165.419 570.957C177.065 665.389 172.048 764.799 116.771 840.196C103.873 857.788 88.2811 874.809 70.3605 888.925C44.7685 909.093 17.6839 924.531 -4.03084 944.994C-5.7439 946.61 -7.42993 948.258 -9.0827 949.94C-34.1113 975.41 -49.7928 1008.05 -55.0505 1043.19C-60.6575 1080.57 -54.142 1121.35 -31.7267 1154.89" stroke="url(#paint19_linear_41260_3839)" stroke-miterlimit="10"/>
<path d="M828.453 11.8711C822.376 41.5586 811.825 70.059 797.688 96.7299C791.404 108.586 784.398 120.106 776.462 130.987C756.313 158.61 730.815 181.456 703.225 200.25C696.647 204.734 689.924 208.998 683.074 213.029C663.317 224.663 642.592 234.45 621.202 242.506C592.664 253.252 562.902 260.903 532.231 266.932C501.734 272.922 470.263 278.445 440.272 281.545C390.548 286.684 340.31 282.541 291.467 291.399C258.041 297.459 224.366 309.998 197.932 330.899C185.739 340.537 175.087 351.955 166.706 365.342C133.483 418.426 143.828 486.954 152.091 549.367C152.906 555.525 153.678 561.726 154.391 567.959C165.565 665.618 160.919 769.875 100.677 845.815C87.4234 862.524 71.6877 877.964 54.6881 891.806C30.3997 911.583 5.13825 928.747 -14.749 950.828C-16.3187 952.572 -17.8571 954.345 -19.3623 956.154C-42.1351 983.523 -54.8771 1017.77 -57.1764 1053.19C-59.6275 1090.86 -50.1017 1130.12 -26.8611 1161.6" stroke="url(#paint20_linear_41260_3839)" stroke-miterlimit="10"/>
<path d="M815.725 1C799.38 81.9442 746.386 153.105 678.115 199.563C609.844 246.022 527.353 269 444.916 273.809C393.108 276.832 340.762 273.002 289.533 281.289C238.301 289.578 186.304 312.367 158.126 355.949C122.861 410.488 133.133 481.312 141.155 545.764C154.349 651.751 154.164 770.403 84.5933 851.441C49.9413 891.806 0.909053 918.807 -29.6246 962.372C-71.9605 1022.77 -68.6757 1111.23 -21.9761 1168.32" stroke="url(#paint21_linear_41260_3839)" stroke-miterlimit="10"/>
</g>
<defs>
<linearGradient id="paint0_linear_41260_3839" x1="-477.333" y1="-3.46632" x2="327.591" y2="1432.58" gradientUnits="userSpaceOnUse">
<stop stop-color="#FFA400"/>
<stop offset="0.929984" stop-color="#DFBF85"/>
</linearGradient>
<linearGradient id="paint1_linear_41260_3839" x1="-467.561" y1="-19.4653" x2="370.439" y2="1422.26" gradientUnits="userSpaceOnUse">
<stop stop-color="#FFA400"/>
<stop offset="0.929984" stop-color="#DFBF85"/>
</linearGradient>
<linearGradient id="paint2_linear_41260_3839" x1="-457.842" y1="-35.4662" x2="413.204" y2="1410.06" gradientUnits="userSpaceOnUse">
<stop stop-color="#FFA400"/>
<stop offset="0.929984" stop-color="#DFBF85"/>
</linearGradient>
<linearGradient id="paint3_linear_41260_3839" x1="-448.175" y1="-51.4659" x2="455.788" y2="1395.98" gradientUnits="userSpaceOnUse">
<stop stop-color="#FFA400"/>
<stop offset="0.929984" stop-color="#DFBF85"/>
</linearGradient>
<linearGradient id="paint4_linear_41260_3839" x1="-438.566" y1="-67.4662" x2="498.099" y2="1379.98" gradientUnits="userSpaceOnUse">
<stop stop-color="#FFA400"/>
<stop offset="0.929984" stop-color="#DFBF85"/>
</linearGradient>
<linearGradient id="paint5_linear_41260_3839" x1="-429.028" y1="-83.4659" x2="540.019" y2="1362.08" gradientUnits="userSpaceOnUse">
<stop stop-color="#FFA400"/>
<stop offset="0.929984" stop-color="#DFBF85"/>
</linearGradient>
<linearGradient id="paint6_linear_41260_3839" x1="-419.559" y1="-99.4656" x2="581.454" y2="1342.26" gradientUnits="userSpaceOnUse">
<stop stop-color="#FFA400"/>
<stop offset="0.929984" stop-color="#DFBF85"/>
</linearGradient>
<linearGradient id="paint7_linear_41260_3839" x1="-410.194" y1="-115.467" x2="622.27" y2="1320.57" gradientUnits="userSpaceOnUse">
<stop stop-color="#FFA400"/>
<stop offset="0.929984" stop-color="#DFBF85"/>
</linearGradient>
<linearGradient id="paint8_linear_41260_3839" x1="-400.946" y1="-131.466" x2="662.341" y2="1297.02" gradientUnits="userSpaceOnUse">
<stop stop-color="#FFA400"/>
<stop offset="0.929984" stop-color="#DFBF85"/>
</linearGradient>
<linearGradient id="paint9_linear_41260_3839" x1="-391.817" y1="-147.465" x2="701.557" y2="1271.64" gradientUnits="userSpaceOnUse">
<stop stop-color="#FFA400"/>
<stop offset="0.929984" stop-color="#DFBF85"/>
</linearGradient>
<linearGradient id="paint10_linear_41260_3839" x1="-382.852" y1="-163.465" x2="739.789" y2="1244.49" gradientUnits="userSpaceOnUse">
<stop stop-color="#FFA400"/>
<stop offset="0.929984" stop-color="#DFBF85"/>
</linearGradient>
<linearGradient id="paint11_linear_41260_3839" x1="-374.068" y1="-179.465" x2="776.916" y2="1215.65" gradientUnits="userSpaceOnUse">
<stop stop-color="#FFA400"/>
<stop offset="0.929984" stop-color="#DFBF85"/>
</linearGradient>
<linearGradient id="paint12_linear_41260_3839" x1="-365.51" y1="-195.467" x2="812.806" y2="1185.2" gradientUnits="userSpaceOnUse">
<stop stop-color="#FFA400"/>
<stop offset="0.929984" stop-color="#DFBF85"/>
</linearGradient>
<linearGradient id="paint13_linear_41260_3839" x1="-357.231" y1="-211.466" x2="847.303" y2="1153.26" gradientUnits="userSpaceOnUse">
<stop stop-color="#FFA400"/>
<stop offset="0.929984" stop-color="#DFBF85"/>
</linearGradient>
<linearGradient id="paint14_linear_41260_3839" x1="-349.296" y1="-227.467" x2="880.282" y2="1119.97" gradientUnits="userSpaceOnUse">
<stop stop-color="#FFA400"/>
<stop offset="0.929984" stop-color="#DFBF85"/>
</linearGradient>
<linearGradient id="paint15_linear_41260_3839" x1="-341.797" y1="-243.468" x2="911.58" y2="1085.51" gradientUnits="userSpaceOnUse">
<stop stop-color="#FFA400"/>
<stop offset="0.929984" stop-color="#DFBF85"/>
</linearGradient>
<linearGradient id="paint16_linear_41260_3839" x1="-334.842" y1="-259.468" x2="941.046" y2="1050.11" gradientUnits="userSpaceOnUse">
<stop stop-color="#FFA400"/>
<stop offset="0.929984" stop-color="#DFBF85"/>
</linearGradient>
<linearGradient id="paint17_linear_41260_3839" x1="-328.579" y1="-275.466" x2="968.512" y2="1014.05" gradientUnits="userSpaceOnUse">
<stop stop-color="#FFA400"/>
<stop offset="0.929984" stop-color="#DFBF85"/>
</linearGradient>
<linearGradient id="paint18_linear_41260_3839" x1="-323.196" y1="-291.467" x2="993.812" y2="977.659" gradientUnits="userSpaceOnUse">
<stop stop-color="#FFA400"/>
<stop offset="0.929984" stop-color="#DFBF85"/>
</linearGradient>
<linearGradient id="paint19_linear_41260_3839" x1="-318.906" y1="-307.467" x2="1016.78" y2="941.344" gradientUnits="userSpaceOnUse">
<stop stop-color="#FFA400"/>
<stop offset="0.929984" stop-color="#DFBF85"/>
</linearGradient>
<linearGradient id="paint20_linear_41260_3839" x1="-315.969" y1="-323.467" x2="1037.26" y2="905.57" gradientUnits="userSpaceOnUse">
<stop stop-color="#FFA400"/>
<stop offset="0.929984" stop-color="#DFBF85"/>
</linearGradient>
<linearGradient id="paint21_linear_41260_3839" x1="-314.534" y1="-339.469" x2="1055.24" y2="870.687" gradientUnits="userSpaceOnUse">
<stop stop-color="#FFA400"/>
<stop offset="0.929984" stop-color="#DFBF85"/>
</linearGradient>
</defs>
</svg>
