 <svg width="36" height="36" viewBox="0 0 36 36" fill="none" xmlns="http://www.w3.org/2000/svg">
                            <circle cx="18" cy="18" r="18" fill="url(#paint0_linear_41260_10520)" />
                            <g clip-path="url(#clip0_41260_10520)">
                                <path
                                    d="M18.0007 12.8203C15.0292 12.8203 14.2822 15.6238 14.2822 18.0006C14.2822 20.3781 15.0292 23.1808 18.0007 23.1808C20.9722 23.1808 21.7192 20.3773 21.7192 18.0006C21.7192 15.6238 20.9722 12.8203 18.0007 12.8203ZM16.4002 18.0006C16.4002 16.9536 16.473 14.7733 18.0007 14.7733C18.1215 14.7733 18.2317 14.7921 18.3345 14.8176C18.5482 15.0021 18.6532 15.2563 18.4477 15.6118L16.4685 19.2486C16.4085 18.7881 16.4002 18.3373 16.4002 18.0006ZM18.0007 21.2278C17.88 21.2278 17.7697 21.2151 17.6662 21.1896C17.6467 21.1836 17.5447 21.1513 17.5147 21.1393C17.1742 20.9946 16.9597 20.7328 17.2687 20.2693L19.4805 16.4503C19.5855 17.0083 19.6005 17.5911 19.6005 18.0006C19.6012 19.0476 19.5285 21.2278 18.0007 21.2278Z"
                                    fill="white" />
                                <path
                                    d="M26.3445 14.5395C25.905 13.4468 25.2623 12.4808 24.4155 11.634C22.6478 9.8775 20.499 9 17.9813 9C15.4845 9 13.38 9.86925 11.6662 11.6153C10.7977 12.4837 10.1355 13.4737 9.67425 14.5777C9.22425 15.6712 9 16.8105 9 18C9 19.2 9.22425 20.34 9.67425 21.4222C10.1243 22.5045 10.7768 23.4788 11.634 24.3465C12.5017 25.2038 13.476 25.8652 14.5582 26.3258C15.6517 26.7757 16.7918 27 17.9813 27C19.1708 27 20.3273 26.7675 21.4418 26.307C22.5563 25.8465 23.55 25.1835 24.429 24.3158C25.2758 23.4907 25.9163 22.545 26.3453 21.4733C26.7833 20.391 27 19.233 27 18C27 16.7783 26.7832 15.6225 26.3445 14.5395ZM23.2687 23.1555C22.5398 23.8628 21.7215 24.4065 20.8102 24.7815C19.9102 25.1565 18.9825 25.3425 18.018 25.3425C17.043 25.3425 16.1093 25.1588 15.2198 24.7943C14.3303 24.4193 13.5315 23.8837 12.825 23.187C12.1177 22.4798 11.5717 21.6817 11.1862 20.7922C10.8112 19.8923 10.6192 18.9645 10.6192 18C10.6192 17.025 10.8112 16.0912 11.1862 15.2017C11.5717 14.3018 12.1177 13.4932 12.825 12.7755C14.229 11.3393 15.9615 10.62 18.0187 10.62C20.0542 10.62 21.7905 11.3415 23.2372 12.7882C23.934 13.485 24.468 14.2815 24.8317 15.171C25.1962 16.0597 25.38 17.0033 25.38 18C25.38 20.0677 24.6727 21.7838 23.2687 23.1555Z"
                                    fill="white" />
                            </g>
                            <defs>
                                <linearGradient id="paint0_linear_41260_10520" x1="0" y1="0" x2="26.6879" y2="40.7692"
                                    gradientUnits="userSpaceOnUse">
                                    <stop stop-color="#F4EAD8" />
                                    <stop offset="1" stop-color="#E0B764" />
                                </linearGradient>
                                <clipPath id="clip0_41260_10520">
                                    <rect width="18" height="18" fill="white" transform="translate(9 9)" />
                                </clipPath>
                            </defs>
                        </svg>