<svg width="40" height="40" viewBox="0 0 40 40" fill="none"
                                xmlns="http://www.w3.org/2000/svg">
                                <rect width="40" height="40" rx="20" fill="url(#paint0_linear_41260_4742)" />
                                <path
                                    d="M22.1053 8.86489C22.0421 8.92359 21.9653 9.02744 21.9427 9.09065C21.9156 9.16289 21.8976 10.3278 21.8976 12.1789V15.1498L22.0014 15.3033C22.1233 15.4885 22.2723 15.5697 22.4845 15.5697C22.6967 15.5697 22.8457 15.4885 22.9676 15.3033C23.067 15.1544 23.0715 15.1182 23.0715 14.0753V12.9962H24.1596C25.3561 12.9962 25.469 13.0187 25.6135 13.2626C25.6857 13.3845 25.6902 13.8676 25.6902 20.2383V27.0831H21.8479C18.5248 27.0831 17.9876 27.0921 17.8611 27.1508C17.5993 27.2773 17.5902 27.3179 17.5586 28.5053C17.527 29.7966 17.4999 29.905 17.1161 30.2933C16.782 30.6274 16.5743 30.6997 15.8474 30.7267C15.1837 30.7538 14.958 30.7087 14.7909 30.51L14.6735 30.3701V21.8547C14.6735 17.1681 14.6554 13.258 14.6329 13.1632L14.5922 12.9962H16.3667C18.1365 12.9962 18.1365 12.9962 18.2901 12.8923C18.561 12.7072 18.6377 12.3821 18.4661 12.1067C18.2855 11.8087 18.3984 11.8177 15.3372 11.8313L12.574 11.8448L12.3031 11.9532C11.9284 12.1022 11.522 12.5131 11.3775 12.8833C11.2827 13.1271 11.2692 13.24 11.2556 13.9895C11.233 14.9783 11.2646 15.0821 11.6123 15.2266C11.7974 15.3033 11.8381 15.3033 12.0141 15.2492C12.1451 15.204 12.2444 15.1363 12.3121 15.0324C12.4115 14.888 12.416 14.8338 12.416 14.152C12.416 13.5109 12.425 13.407 12.5063 13.2806C12.6011 13.1226 12.8043 12.9962 12.9668 12.9962C13.1023 12.9962 13.3416 13.1452 13.4183 13.2761C13.468 13.3619 13.4815 15.0008 13.4996 22.0263L13.5222 30.6726L13.6621 30.9435C13.8292 31.264 14.1543 31.5801 14.4703 31.7336L14.6961 31.8465L21.13 31.86C25.8753 31.8691 27.6272 31.86 27.8123 31.8239C28.1961 31.7426 28.5979 31.5304 28.9049 31.246C29.2481 30.9254 29.4467 30.6229 29.6048 30.1669C29.7222 29.8283 29.7267 29.7741 29.7447 28.704C29.7628 27.4579 29.7402 27.3359 29.4738 27.1734C29.3339 27.0876 29.2481 27.0831 28.0967 27.0831H26.8641L26.8551 20.0712L26.8416 13.0639L26.7151 12.8065C26.5391 12.4498 26.2456 12.1609 25.8799 11.9893L25.5773 11.8448L24.3267 11.8313L23.0715 11.8177V10.5039C23.0715 9.06356 23.0534 8.95068 22.7961 8.81974C22.5884 8.71138 22.2498 8.73396 22.1053 8.86489ZM28.5708 28.9659C28.5573 29.5709 28.5392 29.7109 28.4579 29.8915C28.3225 30.1895 28.0335 30.4875 27.7536 30.6094L27.5188 30.7177L22.927 30.7313C20.3986 30.7358 18.3307 30.7313 18.3307 30.7177C18.3307 30.7042 18.3804 30.5958 18.4391 30.4784C18.6468 30.0676 18.6964 29.8057 18.7235 29.011L18.7506 28.257H23.672H28.5889L28.5708 28.9659Z"
                                    fill="#1A1A1A" />
                                <path
                                    d="M19.9746 10.3588C19.9024 10.3949 19.7985 10.4897 19.7489 10.571C19.6676 10.7109 19.6631 10.8193 19.6631 13.3568C19.6631 15.4562 19.6766 16.0206 19.7218 16.1019C19.8663 16.3502 20.2681 16.4541 20.5435 16.3141C20.8189 16.1696 20.8144 16.2374 20.8144 13.3206C20.8144 10.6929 20.8144 10.6568 20.7196 10.5394C20.53 10.2956 20.241 10.2278 19.9746 10.3588Z"
                                    fill="#1A1A1A" />
                                <path
                                    d="M17.6941 13.7772C17.4503 13.9397 17.4277 14.0255 17.4277 14.8247C17.4277 15.4613 17.4368 15.5651 17.518 15.6916C17.7573 16.0844 18.3623 16.0482 18.5384 15.6374C18.6287 15.4207 18.6287 14.2287 18.5384 14.012C18.403 13.6959 17.9876 13.5785 17.6941 13.7772Z"
                                    fill="#1A1A1A" />
                                <path
                                    d="M19.6627 16.8835C18.6513 17.0144 17.6445 17.5427 16.9356 18.3012C15.5405 19.8002 15.3282 22.0623 16.4164 23.8231C16.7144 24.3062 17.4368 25.0106 17.9018 25.2815C18.8319 25.8143 19.7665 26.0219 20.7508 25.9136C23.4553 25.6066 25.2794 23.0962 24.7195 20.4459C24.3448 18.6805 22.9767 17.3169 21.2023 16.9422C20.796 16.8564 20.06 16.8293 19.6627 16.8835ZM19.7665 18.536C19.8704 18.7211 20.0465 18.8204 20.2722 18.8204C20.6109 18.8204 20.8592 18.5631 20.8592 18.2154V18.0619L21.112 18.1296C21.9518 18.3464 22.7149 18.9243 23.1709 19.6873C23.3334 19.9628 23.5682 20.5542 23.5682 20.6942C23.5682 20.7258 23.4824 20.7619 23.3515 20.78C22.9948 20.8251 22.8006 21.0373 22.8006 21.3715C22.8006 21.7056 23.0445 21.9358 23.4012 21.9358H23.6043L23.5411 22.2067C23.2747 23.3581 22.2904 24.3514 21.1211 24.6584L20.8682 24.7261L20.8501 24.4778C20.8231 24.1753 20.7102 24.0128 20.4619 23.9225C20.0645 23.7825 19.6853 24.0714 19.6853 24.5139V24.7261L19.4279 24.6584C18.2901 24.3604 17.3104 23.3987 17.0214 22.297C16.9943 22.1842 16.9627 22.0623 16.9491 22.0216C16.9311 21.9584 16.9762 21.9449 17.1839 21.9268C17.4052 21.9087 17.4639 21.8817 17.5677 21.7643C17.9154 21.376 17.7122 20.8477 17.193 20.78L16.9672 20.7484L16.9988 20.5858C17.0169 20.4955 17.0891 20.2788 17.1614 20.0982C17.5587 19.15 18.394 18.4186 19.3918 18.1387L19.6627 18.0664L19.6853 18.2516C19.6988 18.3554 19.7349 18.4818 19.7665 18.536Z"
                                    fill="#1A1A1A" />
                                <path
                                    d="M20.0513 19.7822C19.7488 19.8905 19.7082 20.0034 19.6946 20.7935C19.6856 21.2676 19.6946 21.5385 19.7352 21.6243C19.7623 21.6965 20.1913 22.13 20.6834 22.5905C21.627 23.4619 21.7128 23.5206 22.0289 23.4484C22.1011 23.4348 22.2275 23.349 22.3043 23.2633C22.4172 23.1323 22.4398 23.0691 22.4398 22.8795C22.4398 22.6628 22.4262 22.6357 22.1734 22.3738C22.0244 22.2203 21.6677 21.8816 21.3832 21.6198L20.864 21.1457L20.8595 20.6806C20.8595 20.1659 20.8008 19.9673 20.6247 19.8499C20.4622 19.746 20.2319 19.7144 20.0513 19.7822Z"
                                    fill="#1A1A1A" />
                                <defs>
                                    <linearGradient id="paint0_linear_41260_4742" x1="-1.10745e-06" y1="4.50001"
                                        x2="42.6839" y2="68.4054" gradientUnits="userSpaceOnUse">
                                        <stop stop-color="#EEDDBF" />
                                        <stop offset="0.745659" stop-color="#C78A11" />
                                    </linearGradient>
                                </defs>
                            </svg>