<svg width="32" height="32" viewBox="0 0 32 32" fill="none"
                                        xmlns="http://www.w3.org/2000/svg">
                                        <rect width="32" height="32" rx="16" fill="url(#paint0_linear_41260_3802)" />
                                        <path
                                            d="M16.9425 6.83316C17.6115 6.83059 18.2804 6.83732 18.9491 6.85333L19.127 6.85974C19.3323 6.86708 19.5349 6.87624 19.7796 6.88724C20.755 6.93308 21.4205 7.08708 22.0044 7.31349C22.6094 7.54633 23.119 7.86166 23.6287 8.37133C24.0947 8.8293 24.4554 9.38328 24.6856 9.99474C24.912 10.5787 25.066 11.2451 25.1119 12.2204C25.1229 12.4642 25.132 12.6677 25.1394 12.8731L25.1449 13.0509C25.1612 13.7193 25.1682 14.388 25.166 15.0566L25.1669 15.7404V16.9412C25.1691 17.6102 25.1621 18.2791 25.1458 18.9478L25.1403 19.1257C25.133 19.331 25.1238 19.5336 25.1128 19.7783C25.067 20.7537 24.9111 21.4192 24.6856 22.0031C24.4561 22.6152 24.0954 23.1696 23.6287 23.6274C23.1703 24.0934 22.6161 24.454 22.0044 24.6843C21.4205 24.9107 20.755 25.0647 19.7796 25.1106C19.5349 25.1216 19.3323 25.1307 19.127 25.1381L18.9491 25.1436C18.2804 25.1599 17.6115 25.1669 16.9425 25.1647L16.2587 25.1656H15.0588C14.3899 25.1678 13.7209 25.1608 13.0522 25.1445L12.8744 25.139C12.6568 25.1311 12.4392 25.1219 12.2217 25.1115C11.2464 25.0657 10.5809 24.9098 9.99604 24.6843C9.38433 24.4546 8.83025 24.0938 8.37262 23.6274C7.90608 23.1693 7.54508 22.615 7.31479 22.0031C7.08837 21.4192 6.93437 20.7537 6.88854 19.7783C6.87833 19.5608 6.86916 19.3433 6.86104 19.1257L6.85645 18.9478C6.83955 18.2791 6.83191 17.6102 6.83354 16.9412V15.0566C6.83098 14.388 6.8377 13.7193 6.8537 13.0509L6.86012 12.8731C6.86745 12.6677 6.87662 12.4642 6.88762 12.2204C6.93345 11.2442 7.08745 10.5796 7.31387 9.99474C7.5443 9.38298 7.906 8.82915 8.37354 8.37224C8.83086 7.90543 9.38458 7.5441 9.99604 7.31349C10.5809 7.08708 11.2455 6.93308 12.2217 6.88724L12.8744 6.85974L13.0522 6.85516C13.7206 6.83827 14.3892 6.83063 15.0579 6.83224L16.9425 6.83316ZM16.0002 11.4165C15.3929 11.4079 14.79 11.5201 14.2264 11.7466C13.6629 11.973 13.15 12.3092 12.7175 12.7356C12.285 13.162 11.9416 13.6702 11.7072 14.2304C11.4728 14.7907 11.3521 15.392 11.3521 15.9994C11.3521 16.6067 11.4728 17.208 11.7072 17.7683C11.9416 18.3286 12.285 18.8367 12.7175 19.2631C13.15 19.6895 13.6629 20.0257 14.2264 20.2522C14.79 20.4786 15.3929 20.5908 16.0002 20.5822C17.2158 20.5822 18.3816 20.0994 19.2411 19.2398C20.1007 18.3803 20.5835 17.2145 20.5835 15.9989C20.5835 14.7833 20.1007 13.6175 19.2411 12.758C18.3816 11.8985 17.2158 11.4165 16.0002 11.4165ZM16.0002 13.2498C16.3655 13.2431 16.7285 13.3092 17.0679 13.4443C17.4074 13.5795 17.7165 13.7809 17.9773 14.0368C18.238 14.2928 18.4451 14.5981 18.5865 14.935C18.7279 15.2719 18.8008 15.6335 18.8009 15.9989C18.8009 16.3643 18.7282 16.726 18.5869 17.0629C18.4456 17.3998 18.2386 17.7052 17.9779 17.9613C17.7173 18.2173 17.4082 18.4188 17.0688 18.554C16.7294 18.6893 16.3664 18.7555 16.0011 18.7489C15.2718 18.7489 14.5723 18.4592 14.0566 17.9435C13.5409 17.4277 13.2511 16.7283 13.2511 15.9989C13.2511 15.2696 13.5409 14.5701 14.0566 14.0544C14.5723 13.5386 15.2718 13.2489 16.0011 13.2489L16.0002 13.2498ZM20.8127 10.0415C20.517 10.0533 20.2373 10.1791 20.0323 10.3925C19.8272 10.606 19.7127 10.8904 19.7127 11.1864C19.7127 11.4824 19.8272 11.7668 20.0323 11.9803C20.2373 12.1937 20.517 12.3195 20.8127 12.3313C21.1166 12.3313 21.408 12.2106 21.6229 11.9957C21.8378 11.7808 21.9585 11.4894 21.9585 11.1855C21.9585 10.8816 21.8378 10.5902 21.6229 10.3753C21.408 10.1604 21.1166 10.0397 20.8127 10.0397V10.0415Z"
                                            fill="#FCF9F6" />
                                        <defs>
                                            <linearGradient id="paint0_linear_41260_3802" x1="0" y1="0" x2="23.7226"
                                                y2="36.2393" gradientUnits="userSpaceOnUse">
                                                <stop stop-color="#F4EAD8" />
                                                <stop offset="1" stop-color="#E0B764" />
                                            </linearGradient>
                                        </defs>
                                    </svg>