<svg width="54" height="55" viewBox="0 0 54 55" fill="none" xmlns="http://www.w3.org/2000/svg">
<g opacity="0.4">
<path d="M48.4242 1.69727C47.9552 1.69727 47.5742 1.31727 47.5742 0.848267C47.5742 0.379267 47.9542 -0.000732422 48.4242 -0.000732422C48.8932 -0.000732422 49.2742 0.379267 49.2742 0.848267C49.2732 1.31627 48.8932 1.69727 48.4242 1.69727Z" fill="#010101"/>
<path d="M48.4242 15.0059C47.9552 15.0059 47.5742 14.6259 47.5742 14.1559C47.5742 13.6859 47.9542 13.3069 48.4242 13.3069C48.8932 13.3069 49.2742 13.6869 49.2742 14.1559C49.2742 14.6249 48.8932 15.0059 48.4242 15.0059Z" fill="#010101"/>
<path d="M48.4242 28.3164C47.9552 28.3164 47.5742 27.9364 47.5742 27.4674C47.5742 26.9984 47.9542 26.6184 48.4242 26.6184C48.8932 26.6184 49.2742 26.9984 49.2742 27.4674C49.2732 27.9364 48.8932 28.3164 48.4242 28.3164Z" fill="#010101"/>
<path d="M48.4242 41.625C47.9552 41.625 47.5742 41.245 47.5742 40.776C47.5742 40.307 47.9542 39.926 48.4242 39.926C48.8932 39.926 49.2742 40.306 49.2742 40.776C49.2742 41.246 48.8932 41.625 48.4242 41.625Z" fill="#010101"/>
<path d="M48.4242 54.9336C47.9552 54.9336 47.5742 54.5536 47.5742 54.0836C47.5742 53.6146 47.9542 53.2346 48.4242 53.2346C48.8932 53.2346 49.2742 53.6146 49.2742 54.0836C49.2732 54.5536 48.8932 54.9336 48.4242 54.9336Z" fill="#010101"/>
<path d="M36.5297 1.69727C36.0607 1.69727 35.6797 1.31727 35.6797 0.848267C35.6797 0.379267 36.0597 -0.000732422 36.5297 -0.000732422C36.9987 -0.000732422 37.3787 0.379267 37.3787 0.848267C37.3797 1.31627 36.9987 1.69727 36.5297 1.69727Z" fill="#010101"/>
<path d="M37.3797 14.1559C37.3797 13.6864 36.9991 13.3059 36.5297 13.3059C36.0603 13.3059 35.6797 13.6864 35.6797 14.1559C35.6797 14.6253 36.0603 15.0059 36.5297 15.0059C36.9991 15.0059 37.3797 14.6253 37.3797 14.1559Z" fill="#010101"/>
<path d="M37.3797 27.4664C37.3797 26.997 36.9991 26.6164 36.5297 26.6164C36.0603 26.6164 35.6797 26.997 35.6797 27.4664C35.6797 27.9358 36.0603 28.3164 36.5297 28.3164C36.9991 28.3164 37.3797 27.9358 37.3797 27.4664Z" fill="#010101"/>
<path d="M36.5297 41.625C36.0607 41.625 35.6797 41.245 35.6797 40.776C35.6797 40.307 36.0597 39.926 36.5297 39.926C36.9987 39.926 37.3787 40.306 37.3787 40.776C37.3787 41.246 36.9987 41.625 36.5297 41.625Z" fill="#010101"/>
<path d="M36.5297 54.9336C36.0607 54.9336 35.6797 54.5536 35.6797 54.0836C35.6797 53.6146 36.0597 53.2346 36.5297 53.2346C36.9987 53.2346 37.3787 53.6146 37.3787 54.0836C37.3797 54.5536 36.9987 54.9336 36.5297 54.9336Z" fill="#010101"/>
<path d="M24.6371 1.69727C24.1681 1.69727 23.7881 1.31727 23.7881 0.848267C23.7881 0.379267 24.1681 -0.000732422 24.6371 -0.000732422C25.1061 -0.000732422 25.4861 0.379267 25.4861 0.848267C25.4861 1.31627 25.1061 1.69727 24.6371 1.69727Z" fill="#010101"/>
<path d="M25.4871 14.1559C25.4871 13.6864 25.1066 13.3059 24.6371 13.3059C24.1677 13.3059 23.7871 13.6864 23.7871 14.1559C23.7871 14.6253 24.1677 15.0059 24.6371 15.0059C25.1066 15.0059 25.4871 14.6253 25.4871 14.1559Z" fill="#010101"/>
<path d="M25.4871 27.4664C25.4871 26.997 25.1066 26.6164 24.6371 26.6164C24.1677 26.6164 23.7871 26.997 23.7871 27.4664C23.7871 27.9358 24.1677 28.3164 24.6371 28.3164C25.1066 28.3164 25.4871 27.9358 25.4871 27.4664Z" fill="#010101"/>
<path d="M24.6371 41.625C24.1681 41.625 23.7881 41.245 23.7881 40.776C23.7881 40.307 24.1681 39.926 24.6371 39.926C25.1061 39.926 25.4861 40.306 25.4861 40.776C25.4861 41.246 25.1061 41.625 24.6371 41.625Z" fill="#010101"/>
<path d="M24.6371 54.9336C24.1681 54.9336 23.7881 54.5536 23.7881 54.0836C23.7881 53.6146 24.1681 53.2346 24.6371 53.2346C25.1061 53.2346 25.4861 53.6146 25.4861 54.0836C25.4861 54.5536 25.1061 54.9336 24.6371 54.9336Z" fill="#010101"/>
<path d="M12.7435 1.69727C12.2745 1.69727 11.8945 1.31727 11.8945 0.848267C11.8945 0.379267 12.2745 -0.000732422 12.7435 -0.000732422C13.2125 -0.000732422 13.5935 0.379267 13.5935 0.848267C13.5925 1.31627 13.2125 1.69727 12.7435 1.69727Z" fill="#010101"/>
<path d="M13.5936 14.1559C13.5936 13.6864 13.213 13.3059 12.7436 13.3059C12.2741 13.3059 11.8936 13.6864 11.8936 14.1559C11.8936 14.6253 12.2741 15.0059 12.7436 15.0059C13.213 15.0059 13.5936 14.6253 13.5936 14.1559Z" fill="#010101"/>
<path d="M13.5936 27.4664C13.5936 26.997 13.213 26.6164 12.7436 26.6164C12.2741 26.6164 11.8936 26.997 11.8936 27.4664C11.8936 27.9358 12.2741 28.3164 12.7436 28.3164C13.213 28.3164 13.5936 27.9358 13.5936 27.4664Z" fill="#010101"/>
<path d="M12.7435 41.625C12.2745 41.625 11.8945 41.245 11.8945 40.776C11.8945 40.307 12.2745 39.926 12.7435 39.926C13.2125 39.926 13.5935 40.306 13.5935 40.776C13.5935 41.246 13.2125 41.625 12.7435 41.625Z" fill="#010101"/>
<path d="M12.7435 54.9336C12.2745 54.9336 11.8945 54.5536 11.8945 54.0836C11.8945 53.6146 12.2745 53.2346 12.7435 53.2346C13.2125 53.2346 13.5935 53.6146 13.5935 54.0836C13.5925 54.5536 13.2125 54.9336 12.7435 54.9336Z" fill="#010101"/>
<path d="M0.850006 1.69727C0.381006 1.69727 0 1.31727 0 0.848267C0 0.379267 0.380006 -0.000732422 0.850006 -0.000732422C1.31901 -0.000732422 1.69998 0.379267 1.69998 0.848267C1.69998 1.31627 1.32001 1.69727 0.850006 1.69727Z" fill="#010101"/>
<path d="M0.850006 15.0059C0.381006 15.0059 0 14.6259 0 14.1559C0 13.6859 0.380006 13.3069 0.850006 13.3069C1.31901 13.3069 1.69998 13.6869 1.69998 14.1559C1.69998 14.6249 1.32001 15.0059 0.850006 15.0059Z" fill="#010101"/>
<path d="M0.850006 28.3164C0.381006 28.3164 0 27.9364 0 27.4674C0 26.9984 0.380006 26.6184 0.850006 26.6184C1.31901 26.6184 1.69998 26.9984 1.69998 27.4674C1.69998 27.9364 1.32001 28.3164 0.850006 28.3164Z" fill="#010101"/>
<path d="M0.850006 41.625C0.381006 41.625 0 41.245 0 40.776C0 40.307 0.380006 39.926 0.850006 39.926C1.31901 39.926 1.69998 40.306 1.69998 40.776C1.69998 41.246 1.32001 41.625 0.850006 41.625Z" fill="#010101"/>
<path d="M0.850006 54.9336C0.381006 54.9336 0 54.5536 0 54.0836C0 53.6146 0.380006 53.2346 0.850006 53.2346C1.31901 53.2346 1.69998 53.6146 1.69998 54.0836C1.69998 54.5536 1.32001 54.9336 0.850006 54.9336Z" fill="#010101"/>
</g>
</svg>

