<svg width="40" height="40" viewBox="0 0 40 40" fill="none" xmlns="http://www.w3.org/2000/svg">
<rect width="40" height="40" rx="20" fill="url(#paint0_linear_41260_4767)"/>
<path d="M11 16.9531V23.9062H12.9297H14.8594L15 24.0625C15.0781 24.1484 15.1406 24.2305 15.1406 24.25C15.1406 24.2656 14.4102 25.0078 13.5195 25.8984L11.8984 27.5195L13.1367 28.7578C13.8203 29.4414 14.3945 30 14.418 30C14.4414 30 15.0781 29.3789 15.8359 28.6211L17.2148 27.2422L17.4883 27.2695C17.6406 27.2891 17.8555 27.3281 17.9688 27.3594C18.332 27.4648 18.8711 27.9062 19.5078 28.6133L19.7891 28.9258L20.0508 28.6328C20.668 27.9336 21.2422 27.4688 21.6094 27.3594C21.7227 27.3281 21.9375 27.2891 22.0898 27.2695L22.3633 27.2422L23.7422 28.6211C24.5 29.3789 25.1367 30 25.1602 30C25.1836 30 25.7578 29.4414 26.4414 28.7578L27.6797 27.5195L26.0586 25.8984C25.168 25.0078 24.4375 24.2656 24.4375 24.25C24.4375 24.2305 24.5 24.1484 24.5781 24.0625L24.7188 23.9062H26.6484H28.5781V16.9531V10H19.7891H11V16.9531ZM16.8594 14.5586V17.9492L18.3242 16.4844L19.7891 15.0195L21.2539 16.4844L22.7188 17.9492V14.5586V11.1719H25.0625H27.4062V16.9531V22.7344H26.0625H24.7188L24.4336 22.4141C23.7852 21.6758 23.7109 21.4531 23.7188 20.2109L23.7227 19.3867L22.8984 19.3906C21.8633 19.3945 21.6055 19.3477 21.1836 19.0625C20.8711 18.8477 20.4922 18.5 20.0703 18.0273L19.7891 17.7148L19.5078 18.0273C19.0859 18.5 18.707 18.8477 18.3945 19.0625C17.9727 19.3477 17.7148 19.3945 16.6797 19.3906L15.8555 19.3867L15.8594 20.2109C15.8672 21.4531 15.793 21.6758 15.1445 22.4141L14.8594 22.7344H13.5156H12.1719V16.9531V11.1719H14.5156H16.8594V14.5586ZM21.5469 13.0938V15.0195L20.668 14.1406L19.7891 13.2617L18.9102 14.1406L18.0312 15.0195V13.0938V11.1719H19.7891H21.5469V13.0938ZM20.1094 19.7812C20.6797 20.2578 21.2227 20.5 21.8594 20.5625C22 20.5781 22.1953 20.5977 22.2969 20.6094L22.4766 20.6328L22.5039 20.8711C22.6094 21.9219 22.7969 22.3867 23.3789 23.0664C23.4883 23.1914 23.5781 23.3086 23.5781 23.3203C23.5781 23.332 23.4883 23.4492 23.3789 23.5742C22.8047 24.2461 22.5938 24.7656 22.5039 25.75L22.4805 26.0117L22.2578 26.0352C21.1914 26.1445 20.7734 26.3008 20.1602 26.8164C20.0312 26.9219 19.8945 27.0352 19.8555 27.0664C19.7969 27.1133 19.7578 27.0938 19.5039 26.8828C18.793 26.2969 18.418 26.1484 17.3203 26.0352L17.1016 26.0117L17.0742 25.7695C16.9648 24.7109 16.8125 24.3125 16.25 23.6406C16.1133 23.4766 16 23.332 16 23.3203C16 23.3086 16.1133 23.1641 16.25 23C16.8125 22.3281 16.9648 21.9297 17.0742 20.8711L17.1016 20.6328L17.2812 20.6094C17.3828 20.5977 17.5781 20.5781 17.7188 20.5625C18.3555 20.5 18.8984 20.2578 19.4688 19.7812C19.6328 19.6445 19.7773 19.5312 19.7891 19.5312C19.8008 19.5312 19.9453 19.6445 20.1094 19.7812ZM15.8594 26.1992L15.8633 26.875L15.1406 27.5977L14.418 28.3203L14.0195 27.9219L13.6172 27.5195L14.6992 26.4375C15.6953 25.4414 15.7852 25.3594 15.8203 25.4414C15.8398 25.4883 15.8555 25.832 15.8594 26.1992ZM25.5625 27.918L25.1602 28.3203L24.4375 27.5977L23.7148 26.875V26.2578C23.7148 25.9219 23.7305 25.5742 23.75 25.4922L23.7812 25.3398L24.8711 26.4297L25.9609 27.5195L25.5625 27.918Z" fill="#1A1A1A"/>
<path d="M19.207 21.6366C18.7383 21.8124 18.3984 22.121 18.1758 22.5741C18.0547 22.8241 18.0508 22.8515 18.0508 23.3202C18.0508 23.789 18.0547 23.8163 18.1758 24.0663C18.4023 24.5273 18.7461 24.8358 19.2266 25.0038C19.418 25.0702 19.5273 25.0819 19.8672 25.0702C20.2383 25.0585 20.3047 25.0429 20.5508 24.9218C20.9102 24.7499 21.2188 24.4413 21.3945 24.0819C21.5234 23.8163 21.5273 23.7968 21.5273 23.3202C21.5273 22.8437 21.5234 22.8241 21.3945 22.5585C21.2188 22.1991 20.9102 21.8905 20.5508 21.7187C20.2969 21.5937 20.2422 21.5819 19.8477 21.5741C19.4961 21.5624 19.3789 21.5741 19.207 21.6366ZM20.0781 22.8476C20.2461 22.9608 20.3359 23.121 20.3359 23.3202C20.3359 23.6327 20.1016 23.8671 19.7891 23.8671C19.5898 23.8671 19.4297 23.7773 19.3164 23.6093C19.1602 23.371 19.2461 23.0155 19.5 22.8476C19.6484 22.7499 19.9297 22.7499 20.0781 22.8476Z" fill="#1A1A1A"/>
<defs>
<linearGradient id="paint0_linear_41260_4767" x1="-1.10745e-06" y1="4.50001" x2="42.6839" y2="68.4054" gradientUnits="userSpaceOnUse">
<stop stop-color="#EEDDBF"/>
<stop offset="0.745659" stop-color="#C78A11"/>
</linearGradient>
</defs>
</svg>
