<svg width="61" height="62" viewBox="0 0 61 62" fill="none" xmlns="http://www.w3.org/2000/svg">
                            <circle cx="30.5" cy="31" r="30.5" fill="url(#paint0_linear_41260_5969)" />
                            <path
                                d="M37.7279 20.6745H36.6953V19.6419C36.6953 19.3681 36.5865 19.1054 36.3929 18.9118C36.1992 18.7182 35.9366 18.6094 35.6628 18.6094C35.3889 18.6094 35.1263 18.7182 34.9326 18.9118C34.739 19.1054 34.6302 19.3681 34.6302 19.6419V20.6745H26.3698V19.6419C26.3698 19.3681 26.261 19.1054 26.0674 18.9118C25.8737 18.7182 25.6111 18.6094 25.3372 18.6094C25.0634 18.6094 24.8008 18.7182 24.6071 18.9118C24.4135 19.1054 24.3047 19.3681 24.3047 19.6419V20.6745H23.2721C21.9034 20.6761 20.5912 21.2206 19.6233 22.1884C18.6555 23.1563 18.111 24.4685 18.1094 25.8372V38.2279C18.111 39.5966 18.6555 40.9088 19.6233 41.8767C20.5912 42.8445 21.9034 43.389 23.2721 43.3906H37.7279C39.0966 43.389 40.4088 42.8445 41.3767 41.8767C42.3445 40.9088 42.889 39.5966 42.8906 38.2279V25.8372C42.889 24.4685 42.3445 23.1563 41.3767 22.1884C40.4088 21.2206 39.0966 20.6761 37.7279 20.6745ZM20.1745 25.8372C20.1745 25.0157 20.5008 24.2278 21.0818 23.6469C21.6627 23.0659 22.4506 22.7396 23.2721 22.7396H37.7279C38.5494 22.7396 39.3373 23.0659 39.9182 23.6469C40.4992 24.2278 40.8255 25.0157 40.8255 25.8372V26.8698H20.1745V25.8372ZM37.7279 41.3255H23.2721C22.4506 41.3255 21.6627 40.9992 21.0818 40.4182C20.5008 39.8373 20.1745 39.0494 20.1745 38.2279V28.9349H40.8255V38.2279C40.8255 39.0494 40.4992 39.8373 39.9182 40.4182C39.3373 40.9992 38.5494 41.3255 37.7279 41.3255Z"
                                fill="#FCF9F6" />
                            <path
                                d="M30.5 35.6445C31.3554 35.6445 32.0488 34.9511 32.0488 34.0957C32.0488 33.2403 31.3554 32.5469 30.5 32.5469C29.6446 32.5469 28.9512 33.2403 28.9512 34.0957C28.9512 34.9511 29.6446 35.6445 30.5 35.6445Z"
                                fill="#FCF9F6" />
                            <path
                                d="M25.3369 35.6445C26.1923 35.6445 26.8857 34.9511 26.8857 34.0957C26.8857 33.2403 26.1923 32.5469 25.3369 32.5469C24.4815 32.5469 23.7881 33.2403 23.7881 34.0957C23.7881 34.9511 24.4815 35.6445 25.3369 35.6445Z"
                                fill="#FCF9F6" />
                            <path
                                d="M35.6631 35.6445C36.5185 35.6445 37.2119 34.9511 37.2119 34.0957C37.2119 33.2403 36.5185 32.5469 35.6631 32.5469C34.8077 32.5469 34.1143 33.2403 34.1143 34.0957C34.1143 34.9511 34.8077 35.6445 35.6631 35.6445Z"
                                fill="#FCF9F6" />
                            <defs>
                                <linearGradient id="paint0_linear_41260_5969" x1="0" y1="0.5" x2="45.2212" y2="69.5811"
                                    gradientUnits="userSpaceOnUse">
                                    <stop stop-color="#F4EAD8" />
                                    <stop offset="1" stop-color="#E0B764" />
                                </linearGradient>
                            </defs>
                        </svg>