<svg width="32" height="32"
                                        viewBox="0 0 32 32" fill="none" xmlns="http://www.w3.org/2000/svg">
                                        <rect width="32" height="32" rx="16" fill="url(#paint0_linear_41260_3811)" />
                                        <path
                                            d="M14.1663 18.7487L18.9238 15.9987L14.1663 13.2487V18.7487ZM24.763 11.5712C24.8822 12.002 24.9647 12.5795 25.0197 13.3129C25.0838 14.0462 25.1113 14.6787 25.1113 15.2287L25.1663 15.9987C25.1663 18.0062 25.0197 19.482 24.763 20.4262C24.5338 21.2512 24.0022 21.7829 23.1772 22.012C22.7463 22.1312 21.958 22.2137 20.748 22.2687C19.5563 22.3329 18.4655 22.3604 17.4572 22.3604L15.9997 22.4154C12.1588 22.4154 9.76634 22.2687 8.82217 22.012C7.99717 21.7829 7.46551 21.2512 7.23634 20.4262C7.11717 19.9954 7.03467 19.4179 6.97967 18.6845C6.91551 17.9512 6.88801 17.3187 6.88801 16.7687L6.83301 15.9987C6.83301 13.9912 6.97967 12.5154 7.23634 11.5712C7.46551 10.7462 7.99717 10.2145 8.82217 9.98536C9.25301 9.8662 10.0413 9.7837 11.2513 9.7287C12.443 9.66453 13.5338 9.63703 14.5422 9.63703L15.9997 9.58203C19.8405 9.58203 22.233 9.7287 23.1772 9.98536C24.0022 10.2145 24.5338 10.7462 24.763 11.5712Z"
                                            fill="#FCF9F6" />
                                        <defs>
                                            <linearGradient id="paint0_linear_41260_3811" x1="0" y1="0" x2="23.7226"
                                                y2="36.2393" gradientUnits="userSpaceOnUse">
                                                <stop stop-color="#F4EAD8" />
                                                <stop offset="1" stop-color="#E0B764" />
                                            </linearGradient>
                                        </defs>
                                    </svg>