<svg width="36" height="36" viewBox="0 0 36 36" fill="none"
                                xmlns="http://www.w3.org/2000/svg">
                                <circle cx="18" cy="18" r="18" fill="url(#paint0_linear_41260_10531)" />
                                <g clip-path="url(#clip0_41260_10531)">
                                    <path
                                        d="M14.6292 27C13.2715 26.9991 11.96 26.5072 10.9366 25.6151C9.91315 24.7229 9.24695 23.4907 9.06089 22.1459C8.87484 20.801 9.18148 19.4342 9.92425 18.2977C10.667 17.1612 11.7958 16.3317 13.1022 15.9623C14.0518 15.6903 15.0569 15.6779 16.013 15.9263L21.944 9.99676C22.2588 9.67973 22.6335 9.42837 23.0463 9.25726C23.459 9.08616 23.9017 8.99872 24.3485 9.00001C25.0516 9.00061 25.7258 9.28021 26.2231 9.77743C26.7203 10.2746 26.9999 10.9488 27.0005 11.652C27.0016 12.0989 26.9142 12.5415 26.7433 12.9543C26.5723 13.3672 26.3212 13.7421 26.0045 14.0573L25.5005 14.5613C25.2185 14.8413 24.8374 14.999 24.44 15H23.2505V15.75C23.2505 16.1478 23.0924 16.5294 22.8111 16.8107C22.5298 17.092 22.1483 17.25 21.7505 17.25H21.0005V18.4395C21.001 18.6366 20.9624 18.8318 20.887 19.0138C20.8116 19.1958 20.7007 19.3611 20.561 19.5L20.0735 19.9875C20.3232 20.9431 20.311 21.9483 20.0382 22.8975C19.7313 23.979 19.1085 24.9443 18.2496 25.6697C17.3907 26.3951 16.3348 26.8476 15.2172 26.9693C15.0219 26.9896 14.8256 26.9998 14.6292 27ZM14.6292 17.25C13.8613 17.2493 13.1085 17.4629 12.4554 17.8668C11.8023 18.2707 11.275 18.8489 10.9327 19.5363C10.5904 20.2237 10.4468 20.993 10.518 21.7575C10.5892 22.5221 10.8724 23.2516 11.3358 23.864C11.7991 24.4763 12.4242 24.9472 13.1406 25.2236C13.857 25.5 14.6364 25.5709 15.3909 25.4283C16.1455 25.2858 16.8452 24.9355 17.4115 24.4168C17.9777 23.8981 18.3879 23.2317 18.596 22.4925C18.83 21.6799 18.8037 20.8145 18.521 20.0175C18.4748 19.8844 18.4671 19.741 18.4987 19.6037C18.5302 19.4665 18.5998 19.3408 18.6995 19.2413L19.5005 18.4395V17.25C19.5005 16.8522 19.6585 16.4707 19.9398 16.1894C20.2211 15.9081 20.6026 15.75 21.0005 15.75H21.7505V15C21.7505 14.6022 21.9085 14.2207 22.1898 13.9394C22.4711 13.6581 22.8526 13.5 23.2505 13.5H24.44L24.944 12.996C25.1209 12.8199 25.2612 12.6104 25.3568 12.3797C25.4523 12.149 25.5011 11.9017 25.5005 11.652C25.5003 11.3467 25.3789 11.0539 25.1631 10.8379C24.9473 10.6219 24.6546 10.5004 24.3492 10.5C24.0994 10.4994 23.8519 10.5483 23.621 10.644C23.3902 10.7396 23.1807 10.8801 23.0045 11.0573L16.7562 17.3048C16.6565 17.4044 16.5307 17.474 16.3933 17.5054C16.2559 17.5368 16.1123 17.5289 15.9792 17.4825C15.5443 17.3294 15.0866 17.2508 14.6255 17.25H14.6292ZM12.7505 22.5C12.7505 22.6484 12.7945 22.7934 12.8769 22.9167C12.9593 23.04 13.0764 23.1362 13.2135 23.1929C13.3505 23.2497 13.5013 23.2645 13.6468 23.2356C13.7923 23.2067 13.9259 23.1352 14.0308 23.0303C14.1357 22.9255 14.2071 22.7918 14.2361 22.6463C14.265 22.5008 14.2501 22.35 14.1934 22.213C14.1366 22.076 14.0405 21.9588 13.9171 21.8764C13.7938 21.794 13.6488 21.75 13.5005 21.75C13.3016 21.75 13.1108 21.829 12.9701 21.9697C12.8295 22.1103 12.7505 22.3011 12.7505 22.5Z"
                                        fill="white" />
                                </g>
                                <defs>
                                    <linearGradient id="paint0_linear_41260_10531" x1="0" y1="0" x2="26.6879"
                                        y2="40.7692" gradientUnits="userSpaceOnUse">
                                        <stop stop-color="#F4EAD8" />
                                        <stop offset="1" stop-color="#E0B764" />
                                    </linearGradient>
                                    <clipPath id="clip0_41260_10531">
                                        <rect width="18" height="18" fill="white" transform="translate(9 9)" />
                                    </clipPath>
                                </defs>
                            </svg>