 <svg width="36" height="36" viewBox="0 0 36 36" fill="none"
                                xmlns="http://www.w3.org/2000/svg">
                                <circle cx="18" cy="18" r="18" fill="url(#paint0_linear_41260_10526)" />
                                <g clip-path="url(#clip0_41260_10526)">
                                    <path
                                        d="M18 9C16.22 9 14.4799 9.52784 12.9999 10.5168C11.5198 11.5057 10.3663 12.9113 9.68509 14.5558C9.0039 16.2004 8.82567 18.01 9.17294 19.7558C9.5202 21.5016 10.3774 23.1053 11.636 24.364C12.8947 25.6226 14.4984 26.4798 16.2442 26.8271C17.99 27.1743 19.7996 26.9961 21.4442 26.3149C23.0887 25.6337 24.4943 24.4802 25.4832 23.0001C26.4722 21.5201 27 19.78 27 18C26.9974 15.6138 26.0484 13.3262 24.3611 11.6389C22.6738 9.95162 20.3862 9.00258 18 9ZM24.4853 14.25H22.0695C21.5287 12.9967 20.8167 11.8246 19.9538 10.767C21.8636 11.2867 23.4917 12.5381 24.4853 14.25ZM21.375 18C21.3688 18.7636 21.2485 19.522 21.018 20.25H14.982C14.7515 19.522 14.6312 18.7636 14.625 18C14.6312 17.2364 14.7515 16.478 14.982 15.75H21.018C21.2485 16.478 21.3688 17.2364 21.375 18ZM15.5835 21.75H20.4165C19.7799 23.0068 18.9661 24.1656 18 25.191C17.0335 24.1659 16.2197 23.007 15.5835 21.75ZM15.5835 14.25C16.2201 12.9932 17.0339 11.8344 18 10.809C18.9665 11.8341 19.7803 12.993 20.4165 14.25H15.5835ZM16.05 10.767C15.1857 11.8243 14.4724 12.9965 13.9305 14.25H11.5148C12.5091 12.5373 14.1387 11.2858 16.05 10.767ZM10.8458 15.75H13.425C13.2306 16.4844 13.1298 17.2404 13.125 18C13.1298 18.7596 13.2306 19.5156 13.425 20.25H10.8458C10.3848 18.7854 10.3848 17.2146 10.8458 15.75ZM11.5148 21.75H13.9305C14.4724 23.0035 15.1857 24.1757 16.05 25.233C14.1387 24.7142 12.5091 23.4627 11.5148 21.75ZM19.9538 25.233C20.8167 24.1754 21.5287 23.0033 22.0695 21.75H24.4853C23.4917 23.4619 21.8636 24.7133 19.9538 25.233ZM25.1543 20.25H22.575C22.7694 19.5156 22.8702 18.7596 22.875 18C22.8702 17.2404 22.7694 16.4844 22.575 15.75H25.1528C25.6137 17.2146 25.6137 18.7854 25.1528 20.25H25.1543Z"
                                        fill="white" />
                                </g>
                                <defs>
                                    <linearGradient id="paint0_linear_41260_10526" x1="0" y1="0" x2="26.6879"
                                        y2="40.7692" gradientUnits="userSpaceOnUse">
                                        <stop stop-color="#F4EAD8" />
                                        <stop offset="1" stop-color="#E0B764" />
                                    </linearGradient>
                                    <clipPath id="clip0_41260_10526">
                                        <rect width="18" height="18" fill="white" transform="translate(9 9)" />
                                    </clipPath>
                                </defs>
                            </svg>