<svg width="36" height="36" viewBox="0 0 36 36" fill="none"
                                xmlns="http://www.w3.org/2000/svg">
                                <circle cx="18" cy="18" r="18" fill="url(#paint0_linear_41260_10509)" />
                                <g clip-path="url(#clip0_41260_10509)">
                                    <path
                                        d="M23.925 11.3181C23.8328 10.9218 23.6609 10.5485 23.4199 10.2207C23.1789 9.89295 22.8737 9.61764 22.5229 9.41153C22.1721 9.20541 21.7831 9.0728 21.3795 9.02175C20.9758 8.97071 20.566 9.0023 20.175 9.11459L18.882 9.48434C18.5545 9.57848 18.2528 9.74626 18 9.97484C17.7472 9.74626 17.4455 9.57848 17.118 9.48434L15.825 9.11459C15.4342 9.00288 15.0248 8.97174 14.6216 9.02307C14.2184 9.0744 13.8298 9.20713 13.4795 9.4132C13.1291 9.61927 12.8243 9.89438 12.5835 10.2218C12.3427 10.5493 12.171 10.9223 12.0788 11.3181C11.2161 11.475 10.4357 11.9293 9.87325 12.6019C9.31078 13.2746 9.0018 14.123 9 14.9998V20.2498C9.00119 21.244 9.39666 22.1972 10.0997 22.9002C10.8027 23.6032 11.7558 23.9987 12.75 23.9998H17.25V25.4998H15C14.8011 25.4998 14.6103 25.5789 14.4697 25.7195C14.329 25.8602 14.25 26.0509 14.25 26.2498C14.25 26.4488 14.329 26.6395 14.4697 26.7802C14.6103 26.9208 14.8011 26.9998 15 26.9998H21C21.1989 26.9998 21.3897 26.9208 21.5303 26.7802C21.671 26.6395 21.75 26.4488 21.75 26.2498C21.75 26.0509 21.671 25.8602 21.5303 25.7195C21.3897 25.5789 21.1989 25.4998 21 25.4998H18.75V23.9998H23.25C24.2442 23.9987 25.1973 23.6032 25.9003 22.9002C26.6033 22.1972 26.9988 21.244 27 20.2498V14.9998C26.9984 14.1236 26.6899 13.2755 26.1282 12.603C25.5665 11.9304 24.787 11.4758 23.925 11.3181ZM18.75 11.6481C18.7501 11.4852 18.8032 11.3268 18.9013 11.1967C18.9994 11.0667 19.1371 10.9721 19.2938 10.9273L20.5875 10.5576C20.8108 10.4937 21.0458 10.4826 21.2741 10.525C21.5024 10.5675 21.7177 10.6623 21.9032 10.8021C22.0886 10.9419 22.239 11.1229 22.3425 11.3307C22.4461 11.5386 22.5 11.7676 22.5 11.9998V14.9533C22.499 15.2788 22.3924 15.5952 22.1963 15.8549C22.0002 16.1147 21.7252 16.3039 21.4125 16.3941L18.75 17.1546V11.6481ZM14.1 10.7998C14.285 10.6605 14.4999 10.5661 14.7277 10.5241C14.9555 10.4821 15.1899 10.4935 15.4125 10.5576L16.7062 10.9273C16.8629 10.9721 17.0006 11.0667 17.0987 11.1967C17.1968 11.3268 17.2499 11.4852 17.25 11.6481V17.1546L14.5875 16.3941C14.2748 16.3039 13.9998 16.1147 13.8037 15.8549C13.6076 15.5952 13.501 15.2788 13.5 14.9533V11.9998C13.4992 11.7668 13.5531 11.5369 13.6573 11.3285C13.7615 11.1201 13.9131 10.939 14.1 10.7998ZM25.5 20.2498C25.5 20.8466 25.2629 21.4189 24.841 21.8408C24.419 22.2628 23.8467 22.4998 23.25 22.4998H12.75C12.1533 22.4998 11.581 22.2628 11.159 21.8408C10.7371 21.4189 10.5 20.8466 10.5 20.2498V14.9998C10.5019 14.5361 10.6471 14.0844 10.9156 13.7063C11.1841 13.3283 11.5628 13.0424 12 12.8878V14.9533C12.0018 15.6046 12.2148 16.2377 12.607 16.7576C12.9991 17.2776 13.5493 17.6564 14.175 17.8371L16.7632 18.5773C17.5721 18.8079 18.4294 18.8079 19.2382 18.5773L21.8265 17.8371C22.4519 17.6561 23.0018 17.2772 23.3936 16.7573C23.7855 16.2374 23.9983 15.6044 24 14.9533V12.8878C24.4372 13.0424 24.8159 13.3283 25.0844 13.7063C25.3529 14.0844 25.4981 14.5361 25.5 14.9998V20.2498Z"
                                        fill="white" />
                                </g>
                                <defs>
                                    <linearGradient id="paint0_linear_41260_10509" x1="0" y1="0" x2="26.6879"
                                        y2="40.7692" gradientUnits="userSpaceOnUse">
                                        <stop stop-color="#F4EAD8" />
                                        <stop offset="1" stop-color="#E0B764" />
                                    </linearGradient>
                                    <clipPath id="clip0_41260_10509">
                                        <rect width="18" height="18" fill="white" transform="translate(9 9)" />
                                    </clipPath>
                                </defs>
                            </svg>