 <svg width="40" height="40" viewBox="0 0 40 40" fill="none" xmlns="http://www.w3.org/2000/svg">
                            <path opacity="0.4"
                                d="M20.0125 0C8.94424 0 0 8.97751 0 20.0261C0 28.7475 5.54544 36.1638 13.3416 38.901V21.585C14.2112 21.4581 15.0807 21.3811 16 21.3811V39.642C16.8673 39.821 17.7639 39.9501 18.6584 40V21.585C19.5777 21.7391 20.497 21.943 21.3167 22.2262V40C22.2361 39.9501 23.1305 39.821 24 39.642V23.4272C24.3306 23.6062 24.6906 23.8101 24.9963 24.0412C25.61 24.4514 26.1715 24.9113 26.6833 25.4234V38.901C30.5689 37.546 33.8908 34.9878 36.2683 31.7136C38.6187 28.4144 40 24.3992 40 20.0261C40 8.97751 31.0535 0 20.0125 0ZM28.0125 20.051H12.0125V16.0358C18.1466 16.0358 23.7441 17.0079 28.0125 18.5691V20.051ZM30.6708 14.7057H9.32918V10.7155H30.6708V14.7057Z"
                                fill="url(#paint0_linear_41260_4828)" />
                            <defs>
                                <linearGradient id="paint0_linear_41260_4828" x1="0" y1="0" x2="29.6532" y2="45.2991"
                                    gradientUnits="userSpaceOnUse">
                                    <stop stop-color="#F4EAD8" />
                                    <stop offset="1" stop-color="#E0B764" />
                                </linearGradient>
                            </defs>
                        </svg>