<svg width="61" height="62" viewBox="0 0 61 62" fill="none" xmlns="http://www.w3.org/2000/svg">
                            <circle cx="30.5" cy="31" r="30.5" fill="url(#paint0_linear_41260_5960)" />
                            <g clip-path="url(#clip0_41260_5960)">
                                <path
                                    d="M30.5 35.4479C29.6203 35.4479 28.7603 35.1871 28.0289 34.6983C27.2974 34.2096 26.7273 33.5149 26.3907 32.7021C26.054 31.8894 25.9659 30.9951 26.1375 30.1323C26.3092 29.2694 26.7328 28.4769 27.3548 27.8548C27.9769 27.2328 28.7694 26.8092 29.6323 26.6376C30.4951 26.4659 31.3894 26.554 32.2021 26.8907C33.0149 27.2273 33.7096 27.7974 34.1983 28.5289C34.687 29.2603 34.9479 30.1203 34.9479 31C34.9479 32.1797 34.4793 33.311 33.6452 34.1452C32.811 34.9793 31.6797 35.4479 30.5 35.4479ZM30.5 28.776C30.0601 28.776 29.6302 28.9065 29.2644 29.1508C28.8987 29.3952 28.6137 29.7426 28.4453 30.1489C28.277 30.5553 28.233 31.0025 28.3188 31.4339C28.4046 31.8653 28.6164 32.2616 28.9274 32.5726C29.2385 32.8836 29.6347 33.0954 30.0661 33.1812C30.4975 33.267 30.9447 33.223 31.3511 33.0547C31.7574 32.8863 32.1048 32.6013 32.3492 32.2356C32.5935 31.8698 32.724 31.4399 32.724 31C32.724 30.4102 32.4896 29.8445 32.0726 29.4274C31.6555 29.0104 31.0898 28.776 30.5 28.776ZM37.1719 43.2318C37.1719 41.4623 36.4689 39.7653 35.2177 38.514C33.9665 37.2628 32.2695 36.5599 30.5 36.5599C28.7305 36.5599 27.0335 37.2628 25.7823 38.514C24.5311 39.7653 23.8281 41.4623 23.8281 43.2318C23.8281 43.5267 23.9453 43.8095 24.1538 44.0181C24.3624 44.2266 24.6452 44.3438 24.9401 44.3438C25.235 44.3438 25.5179 44.2266 25.7264 44.0181C25.9349 43.8095 26.0521 43.5267 26.0521 43.2318C26.0521 42.0521 26.5207 40.9208 27.3548 40.0866C28.189 39.2525 29.3203 38.7839 30.5 38.7839C31.6797 38.7839 32.811 39.2525 33.6452 40.0866C34.4793 40.9208 34.9479 42.0521 34.9479 43.2318C34.9479 43.5267 35.0651 43.8095 35.2736 44.0181C35.4821 44.2266 35.765 44.3438 36.0599 44.3438C36.3548 44.3438 36.6376 44.2266 36.8462 44.0181C37.0547 43.8095 37.1719 43.5267 37.1719 43.2318ZM37.1719 26.5521C36.2922 26.5521 35.4322 26.2912 34.7007 25.8025C33.9693 25.3137 33.3992 24.6191 33.0625 23.8063C32.7259 22.9936 32.6378 22.0992 32.8094 21.2364C32.981 20.3736 33.4047 19.5811 34.0267 18.959C34.6488 18.337 35.4413 17.9133 36.3041 17.7417C37.1669 17.5701 38.0613 17.6582 38.874 17.9948C39.6868 18.3315 40.3814 18.9016 40.8702 19.633C41.3589 20.3645 41.6198 21.2245 41.6198 22.1042C41.6198 23.2838 41.1512 24.4152 40.317 25.2493C39.4829 26.0835 38.3515 26.5521 37.1719 26.5521ZM37.1719 19.8802C36.732 19.8802 36.302 20.0106 35.9363 20.255C35.5706 20.4994 35.2855 20.8467 35.1172 21.2531C34.9489 21.6595 34.9048 22.1066 34.9906 22.538C35.0765 22.9694 35.2883 23.3657 35.5993 23.6767C35.9103 23.9878 36.3066 24.1996 36.738 24.2854C37.1694 24.3712 37.6166 24.3272 38.0229 24.1588C38.4293 23.9905 38.7767 23.7055 39.021 23.3397C39.2654 22.974 39.3958 22.544 39.3958 22.1042C39.3958 21.5143 39.1615 20.9487 38.7444 20.5316C38.3274 20.1145 37.7617 19.8802 37.1719 19.8802ZM43.8438 34.3359C43.842 32.567 43.1385 30.871 41.8877 29.6202C40.6368 28.3693 38.9408 27.6658 37.1719 27.6641C36.877 27.6641 36.5941 27.7812 36.3856 27.9898C36.177 28.1983 36.0599 28.4811 36.0599 28.776C36.0599 29.071 36.177 29.3538 36.3856 29.5623C36.5941 29.7709 36.877 29.888 37.1719 29.888C38.3515 29.888 39.4829 30.3566 40.317 31.1908C41.1512 32.0249 41.6198 33.1563 41.6198 34.3359C41.6198 34.6309 41.7369 34.9137 41.9455 35.1222C42.154 35.3308 42.4369 35.4479 42.7318 35.4479C43.0267 35.4479 43.3095 35.3308 43.5181 35.1222C43.7266 34.9137 43.8438 34.6309 43.8438 34.3359ZM23.8281 26.5521C22.9484 26.5521 22.0885 26.2912 21.357 25.8025C20.6255 25.3137 20.0554 24.6191 19.7188 23.8063C19.3821 22.9936 19.294 22.0992 19.4657 21.2364C19.6373 20.3736 20.0609 19.5811 20.683 18.959C21.305 18.337 22.0976 17.9133 22.9604 17.7417C23.8232 17.5701 24.7175 17.6582 25.5303 17.9948C26.343 18.3315 27.0377 18.9016 27.5264 19.633C28.0152 20.3645 28.276 21.2245 28.276 22.1042C28.276 23.2838 27.8074 24.4152 26.9733 25.2493C26.1391 26.0835 25.0078 26.5521 23.8281 26.5521ZM23.8281 19.8802C23.3883 19.8802 22.9583 20.0106 22.5926 20.255C22.2268 20.4994 21.9418 20.8467 21.7735 21.2531C21.6051 21.6595 21.5611 22.1066 21.6469 22.538C21.7327 22.9694 21.9445 23.3657 22.2555 23.6767C22.5666 23.9878 22.9628 24.1996 23.3943 24.2854C23.8257 24.3712 24.2728 24.3272 24.6792 24.1588C25.0856 23.9905 25.4329 23.7055 25.6773 23.3397C25.9216 22.974 26.0521 22.544 26.0521 22.1042C26.0521 21.5143 25.8178 20.9487 25.4007 20.5316C24.9836 20.1145 24.418 19.8802 23.8281 19.8802ZM19.3802 34.3359C19.3802 33.1563 19.8488 32.0249 20.683 31.1908C21.5171 30.3566 22.6485 29.888 23.8281 29.888C24.123 29.888 24.4059 29.7709 24.6144 29.5623C24.8229 29.3538 24.9401 29.071 24.9401 28.776C24.9401 28.4811 24.8229 28.1983 24.6144 27.9898C24.4059 27.7812 24.123 27.6641 23.8281 27.6641C22.0592 27.6658 20.3632 28.3693 19.1123 29.6202C17.8615 30.871 17.158 32.567 17.1562 34.3359C17.1562 34.6309 17.2734 34.9137 17.4819 35.1222C17.6905 35.3308 17.9733 35.4479 18.2682 35.4479C18.5631 35.4479 18.846 35.3308 19.0545 35.1222C19.2631 34.9137 19.3802 34.6309 19.3802 34.3359Z"
                                    fill="#FCF9F6" />
                            </g>
                            <defs>
                                <linearGradient id="paint0_linear_41260_5960" x1="0" y1="0.5" x2="45.2212" y2="69.5811"
                                    gradientUnits="userSpaceOnUse">
                                    <stop stop-color="#F4EAD8" />
                                    <stop offset="1" stop-color="#E0B764" />
                                </linearGradient>
                                <clipPath id="clip0_41260_5960">
                                    <rect width="26.6875" height="26.6875" fill="white"
                                        transform="translate(17.1562 17.6562)" />
                                </clipPath>
                            </defs>
                        </svg>